<svg width="23" height="17" viewBox="0 0 23 17" fill="none" xmlns="http://www.w3.org/2000/svg">
<path d="M22.4453 2.01262C21.6272 2.35385 20.7553 2.58024 19.8465 2.69017C20.7815 2.15933 21.4953 1.32486 21.8308 0.319159C20.959 0.81363 19.9965 1.16262 18.9708 1.35755C18.1428 0.51899 16.9633 0 15.6759 0C13.1789 0 11.1684 1.92762 11.1684 4.29046C11.1684 4.63046 11.1985 4.95738 11.2728 5.26877C7.52369 5.09469 4.20558 3.3857 1.97675 0.782163C1.58744 1.42416 1.35928 2.15933 1.35928 2.95048C1.35928 4.43594 2.16367 5.75303 3.36252 6.51517C2.63805 6.50209 1.9269 6.30185 1.3249 5.98678C1.3249 5.99986 1.3249 6.01702 1.3249 6.03377C1.3249 8.11832 2.88813 9.84978 4.93864 10.2486C4.57168 10.3443 4.17121 10.39 3.75612 10.39C3.46736 10.39 3.17603 10.3745 2.90231 10.3169C3.4867 12.0156 5.1449 13.2645 7.11677 13.305C5.58233 14.4467 3.63366 15.1345 1.52471 15.1345C1.15474 15.1345 0.800241 15.119 0.445312 15.0756C2.44297 16.3004 4.81059 17 7.36385 17C15.6634 17 20.201 10.4615 20.201 4.79392C20.201 4.6043 20.1941 4.42123 20.1847 4.23937C21.0797 3.63538 21.8321 2.88101 22.4453 2.01262Z" fill="white"/>
</svg>
