<svg width="17" height="21" viewBox="0 0 17 21" fill="none" xmlns="http://www.w3.org/2000/svg">
<mask id="path-1-inside-1_2019_5353" fill="white">
<path d="M0 1.85962C0 1.30733 0.447715 0.859619 1 0.859619H16C16.5523 0.859619 17 1.30733 17 1.85962V10.8596C17 16.3825 12.5228 20.8596 7 20.8596H1C0.447715 20.8596 0 20.4119 0 19.8596V1.85962Z"/>
</mask>
<path d="M0 1.85962C0 1.30733 0.447715 0.859619 1 0.859619H16C16.5523 0.859619 17 1.30733 17 1.85962V10.8596C17 16.3825 12.5228 20.8596 7 20.8596H1C0.447715 20.8596 0 20.4119 0 19.8596V1.85962Z" stroke="#121212" stroke-width="3" mask="url(#path-1-inside-1_2019_5353)"/>
<path d="M15 12.8596H9V18.8596" stroke="#121212" stroke-width="1.5"/>
</svg>
