<svg width="118" height="52" viewBox="0 0 118 52" fill="none" xmlns="http://www.w3.org/2000/svg">
<rect width="118" height="52" rx="3" transform="matrix(-1 0 0 1 118 0)" fill="#121212"/>
<path d="M62.9062 30C62.5417 30 62.3594 29.8047 62.3594 29.4141V19.3828C62.3594 18.9922 62.5417 18.7969 62.9062 18.7969H65.1719C65.474 18.7969 65.6901 19.0052 65.8203 19.4219L67.9375 26.2734C68.0312 26.5703 68.0964 26.8151 68.1328 27.0078C68.1693 27.1953 68.2005 27.4193 68.2266 27.6797H68.2734C68.2995 27.4193 68.3307 27.1953 68.3672 27.0078C68.4036 26.8151 68.4688 26.5703 68.5625 26.2734L70.6797 19.4219C70.8099 19.0052 71.026 18.7969 71.3281 18.7969H73.5938C73.9583 18.7969 74.1406 18.9922 74.1406 19.3828V29.4141C74.1406 29.8047 73.9583 30 73.5938 30H72.4062C72.0417 30 71.8594 29.8047 71.8594 29.4141V22.9609C71.8594 22.6484 71.8724 22.3359 71.8984 22.0234H71.8438L69.5859 29.3672C69.4557 29.7891 69.2318 30 68.9141 30H67.5859C67.2682 30 67.0443 29.7891 66.9141 29.3672L64.6562 22.0234H64.6016C64.6276 22.3359 64.6406 22.6484 64.6406 22.9609V29.4141C64.6406 29.8047 64.4583 30 64.0938 30H62.9062ZM77.1875 30C76.8229 30 76.6406 29.8047 76.6406 29.4141V19.3828C76.6406 18.9922 76.8229 18.7969 77.1875 18.7969H83.8906C84.2812 18.7969 84.4766 18.9661 84.4766 19.3047V20.2266C84.4766 20.5651 84.2812 20.7344 83.8906 20.7344H78.9219V23.2188H83.4766C83.8672 23.2188 84.0625 23.388 84.0625 23.7266V24.6484C84.0625 24.987 83.8672 25.1562 83.4766 25.1562H78.9219V28.0625H84.1406C84.5312 28.0625 84.7266 28.2318 84.7266 28.5703V29.4922C84.7266 29.8307 84.5312 30 84.1406 30H77.1875ZM87.1875 30C86.8229 30 86.6406 29.8047 86.6406 29.4141V19.3828C86.6406 18.9922 86.8229 18.7969 87.1875 18.7969H88.3438C88.7917 18.7969 89.1302 18.9792 89.3594 19.3438L93.3438 25.7422H93.3984C93.3724 25.4297 93.3594 25.1172 93.3594 24.8047V19.3828C93.3594 18.9922 93.5417 18.7969 93.9062 18.7969H95.0938C95.4583 18.7969 95.6406 18.9922 95.6406 19.3828V29.4141C95.6406 29.8047 95.4583 30 95.0938 30H94.0156C93.5677 30 93.2292 29.8177 93 29.4531L88.9375 22.9375H88.8828C88.9089 23.25 88.9219 23.5625 88.9219 23.875V29.4141C88.9219 29.8047 88.7396 30 88.375 30H87.1875ZM98.1406 25.3359V19.2266C98.1406 18.9401 98.3229 18.7969 98.6875 18.7969H99.875C100.24 18.7969 100.422 18.9401 100.422 19.2266V25.2578C100.422 26.6641 100.628 27.5443 101.039 27.8984C101.456 28.2474 101.924 28.4219 102.445 28.4219C102.966 28.4219 103.432 28.2474 103.844 27.8984C104.26 27.5443 104.469 26.6641 104.469 25.2578V19.2266C104.469 18.9401 104.651 18.7969 105.016 18.7969H106.203C106.568 18.7969 106.75 18.9401 106.75 19.2266V25.3359C106.75 27.1589 106.365 28.4375 105.594 29.1719C104.823 29.901 103.773 30.2656 102.445 30.2656C101.117 30.2656 100.068 29.901 99.2969 29.1719C98.526 28.4375 98.1406 27.1589 98.1406 25.3359Z" fill="white"/>
<rect width="40" height="4" rx="2" transform="matrix(-1 0 0 1 52 36)" fill="white"/>
<rect width="40" height="4" rx="2" transform="matrix(-1 0 0 1 52 24)" fill="white"/>
<rect width="40" height="4" rx="2" transform="matrix(-1 0 0 1 52 12)" fill="white"/>
</svg>
