<svg width="59" height="55" viewBox="0 0 59 55" fill="none" xmlns="http://www.w3.org/2000/svg">
<path d="M58.6128 24.4768C58.6128 23.8182 58.4664 23.3792 58.1737 23.0865C57.8811 22.7938 57.442 22.6474 56.7834 22.6474C54.8443 22.6474 52.9052 22.6474 50.9295 22.6474C48.5147 22.6474 46.1 22.6474 43.6852 22.6474C43.4291 22.6474 43.2096 22.6108 43.0266 22.5377C42.8071 22.4645 42.6242 22.3181 42.4778 22.1718C41.0875 20.7449 39.624 19.3911 38.1971 17.9642C36.697 16.4642 34.9042 15.7324 32.7822 15.7324H32.7456C30.8797 15.7324 28.9771 15.7324 27.1112 15.7324C25.6111 15.7324 24.111 15.7324 22.6109 15.7324H22.5378C19.6839 15.7324 17.2692 16.7203 15.2935 18.7692C15.1471 18.9155 15.0008 19.0253 14.8178 19.0985C14.6349 19.1716 14.452 19.2082 14.269 19.2082C13.3909 19.2082 12.5128 19.2082 11.5982 19.2082C10.3176 19.2082 9.03705 19.2082 7.7565 19.2082C5.85396 19.2082 3.98801 19.2082 2.08547 19.1716H2.04889C1.53666 19.1716 1.13421 19.2448 0.80492 19.4277C0.475634 19.6107 0.219524 19.8668 0 20.3058C0 26.7452 0 33.148 0 39.5873C0.182936 40.0264 0.439047 40.3191 0.731745 40.502C1.06103 40.6849 1.4269 40.7581 1.90254 40.7581H1.97571C2.92698 40.7581 3.87825 40.7215 4.82952 40.7215C5.7442 40.7215 6.65888 40.7215 7.57356 40.7215C8.08578 40.7215 8.63459 40.7215 9.14682 40.7215C9.36634 40.7215 9.54928 40.7581 9.73221 40.8313C9.91515 40.9045 10.0615 41.0142 10.2078 41.1606C11.3421 42.3314 12.5494 43.5022 13.6836 44.6729C14.1227 45.112 14.5983 45.3315 15.2203 45.3315H15.2569C15.4398 45.3315 15.5862 45.3315 15.7691 45.3315C16.6106 45.3315 17.4155 45.3681 18.257 45.3681C18.8424 45.3681 19.4644 45.3681 20.0498 45.3315C20.123 45.3315 20.1962 45.3315 20.3059 45.3315C21.4401 45.3315 22.3914 45.8437 23.3427 46.0633L23.489 46.0999V46.2462C23.489 46.2828 23.489 46.356 23.489 46.3926C23.489 47.6365 24.0012 48.8805 24.8793 49.7952C25.7574 50.7098 27.038 51.3318 28.5015 51.3318C29.16 51.3318 29.8552 51.2221 30.587 50.966L30.7333 50.9294L30.8065 51.0757C30.8431 51.1489 30.8797 51.2221 30.9162 51.3318C31.8675 53.3807 33.6237 54.4417 35.4896 54.4417C36.6604 54.4417 37.8678 54.0027 38.9654 53.1246C42.368 50.2708 45.7707 47.417 49.1733 44.5998C49.4294 44.3803 49.7953 44.2339 50.1611 44.2339C51.2953 44.2339 52.393 44.2339 53.5272 44.2339C54.2223 44.2339 54.9175 44.2339 55.6492 44.2339C56.0517 44.2339 56.4541 44.2339 56.8566 44.2339C57.4786 44.2339 57.9176 44.0876 58.2103 43.7949C58.503 43.5022 58.6494 43.0631 58.6494 42.4411C58.6494 39.441 58.6494 36.4774 58.6494 33.4772C58.6128 30.4771 58.6128 27.4769 58.6128 24.4768ZM18.9156 42.2582C18.4034 42.2582 17.8912 42.2582 17.4155 42.2582C16.9399 42.2582 16.4277 42.2582 15.952 42.2216C15.8057 42.2216 15.6959 42.1484 15.5862 42.0753C15.4764 42.0021 15.4032 41.9289 15.3301 41.8557C14.1593 40.6849 12.9519 39.5141 11.7811 38.3068C11.3055 37.8311 10.8298 37.6116 10.1347 37.6116H10.0981C9.11023 37.6116 8.12237 37.6116 7.13452 37.6116C5.85396 37.6116 4.61 37.6116 3.32944 37.6116H3.10992V37.4287C3.10992 32.4162 3.10992 27.4769 3.10992 22.4645V22.2815H3.29285C3.54896 22.2815 3.76849 22.2815 3.98801 22.2815C5.96372 22.2815 7.90285 22.2815 9.87856 22.2815C11.5616 22.2815 13.2446 22.2815 14.9276 22.3181H14.9642C15.8057 22.3181 16.4277 22.0986 16.9765 21.4766C18.0375 20.2692 19.3181 19.318 20.9645 19.0253C21.5133 18.9155 22.0987 18.8789 22.6475 18.8789C23.7451 18.8789 24.8793 18.8789 25.977 18.8789C26.9648 18.8789 27.9161 18.8789 28.9039 18.8789C30.1113 18.8789 31.3553 18.8789 32.5627 18.8789H32.5993C33.9896 18.8789 35.1604 19.3546 36.1482 20.3424C37.941 22.1718 39.7704 23.928 41.5997 25.7207C42.0022 26.1232 42.1851 26.5988 42.1851 27.0745C42.1851 27.294 42.1485 27.4769 42.0754 27.6965C41.9656 28.0623 41.7827 28.3184 41.5265 28.538C41.2704 28.7575 40.9777 28.9038 40.6119 28.977C40.5021 29.0136 40.3558 29.0136 40.246 29.0136C39.624 29.0136 39.1484 28.6843 38.7459 28.2819C37.1361 26.6354 35.4896 25.0256 33.8798 23.3792C33.4042 22.9035 32.8919 22.684 32.2334 22.684H32.1602C31.8675 22.684 31.5748 22.684 31.2821 22.684C30.7333 22.684 30.1479 22.684 29.5991 22.684C29.0869 22.684 28.6112 22.684 28.099 22.7206C27.66 22.7572 27.1112 22.9035 26.7819 23.1596C23.2695 26.05 19.7937 28.977 16.3179 31.904C15.074 32.9284 14.452 34.209 14.452 35.6359C14.452 36.0384 14.4886 36.4408 14.5983 36.8799C14.8178 37.9043 15.2569 38.7092 15.9155 39.3312C16.5374 39.9532 17.379 40.3922 18.4034 40.6849C18.5132 40.7215 18.6229 40.7581 18.7693 40.7947L18.879 40.8313V40.941C18.9156 41.3069 18.9522 41.6362 18.9888 42.0753L19.0254 42.2582H18.9156ZM55.5029 25.9769C55.5029 30.9527 55.5029 35.892 55.5029 40.9045V41.0874H55.3199C54.515 41.0874 53.7467 41.0874 52.9784 41.0874C52.2832 41.0874 51.5515 41.0874 50.8563 41.0874C50.3441 41.0874 49.8684 41.0874 49.3562 41.0874H49.283C48.6976 41.0874 48.222 41.2703 47.783 41.6728C44.1974 44.7095 40.5753 47.7097 36.9897 50.7464C36.5873 51.0757 36.1482 51.3318 35.5994 51.3318C35.4531 51.3318 35.2701 51.2952 35.1238 51.2587C34.2091 51.0025 33.6969 50.2342 33.6969 49.4293C33.6969 48.9537 33.8798 48.478 34.2823 48.0756C34.9042 47.4902 35.5628 46.9779 36.2214 46.4291C36.697 46.0267 36.9165 45.551 36.9165 45.0754C36.9165 44.7461 36.8068 44.4168 36.5507 44.1241C36.258 43.7583 35.8555 43.5753 35.4165 43.5753C35.014 43.5753 34.6115 43.7217 34.2457 44.051C32.8188 45.2583 31.3919 46.4291 29.965 47.6365C29.5259 48.0024 29.0503 48.2585 28.5015 48.2585C28.3551 48.2585 28.1722 48.2219 27.9893 48.1853C27.6234 48.0756 27.3307 47.9292 27.1112 47.6731C26.8916 47.4536 26.7087 47.1243 26.6355 46.795C26.5989 46.6487 26.5624 46.4657 26.5624 46.3194C26.5624 45.7706 26.8185 45.2949 27.2575 44.8925C28.6478 43.7217 30.0016 42.5509 31.3919 41.4167C31.5748 41.2703 31.7577 41.124 31.9041 40.9776C32.27 40.6483 32.4163 40.2093 32.4163 39.8068C32.4163 39.4776 32.3066 39.1117 32.0504 38.819C31.7577 38.4531 31.3187 38.2702 30.8431 38.2702C30.5138 38.2702 30.1479 38.3799 29.8552 38.636C28.4649 39.7703 27.1112 40.9776 25.6843 42.1118C25.2818 42.4411 24.8062 42.807 24.2574 42.9533C24.111 42.9899 23.9647 42.9899 23.8549 42.9899C23.1597 42.9899 22.5378 42.5509 22.2816 41.8923C22.1719 41.6362 22.0987 41.3435 22.0987 41.0508C22.0987 40.502 22.3548 39.9898 22.7939 39.5873C24.2574 38.3434 25.794 37.0994 27.2209 35.8188C27.5136 35.5627 27.8063 35.1237 27.8795 34.7212C27.9161 34.6115 27.9161 34.5017 27.9161 34.3919C27.9161 33.8431 27.5868 33.3675 27.1112 33.148C26.855 33.0016 26.5989 32.965 26.3428 32.965C25.977 32.965 25.6477 33.0748 25.3184 33.3675C23.8549 34.6115 22.3914 35.8554 20.8913 37.0628C20.4157 37.4287 19.9401 37.6482 19.4644 37.6482C19.062 37.6482 18.6961 37.5018 18.3668 37.2823C17.8546 36.9164 17.5985 36.3676 17.5985 35.7822C17.5985 35.2334 17.818 34.6846 18.2936 34.2822C19.8669 32.9284 21.4767 31.6113 23.05 30.2576C24.6598 28.9038 26.3062 27.5501 27.8795 26.1964C28.2088 25.9403 28.5381 25.7207 29.0137 25.7573H29.1235C29.1966 25.7573 29.2698 25.7573 29.3796 25.7573C29.8186 25.7573 30.2577 25.7207 30.6967 25.7207C31.0626 25.7207 31.465 25.7573 31.7943 25.9037C32.1968 26.0866 32.5261 26.3793 32.8554 26.7086C33.1481 27.0379 33.4408 27.4038 33.7335 27.6965C34.7213 28.6843 35.7092 29.7088 36.697 30.66C37.7581 31.6479 39.002 32.1235 40.246 32.1235C42.4046 32.1235 44.4901 30.7332 45.0755 28.2819C45.2584 27.5867 45.1853 26.8184 45.2584 26.0134V25.8305H45.4414C48.6611 25.8305 51.9173 25.8305 55.2102 25.8305H55.3931V25.9769H55.5029Z" fill="black"/>
<path d="M27.7698 7.20769C27.7698 8.08578 28.4649 8.81753 29.3064 8.81753C30.1479 8.81753 30.8431 8.12237 30.8431 7.20769C30.8431 6.25642 30.8431 5.30515 30.8431 4.35388C30.8431 3.4392 30.8431 2.52452 30.8431 1.57325C30.8431 1.09762 30.6602 0.731745 30.4041 0.439047C30.1479 0.146349 29.7455 0 29.3064 0C28.8674 0 28.5015 0.182936 28.2088 0.439047C27.9527 0.731745 27.7698 1.09762 27.7698 1.57325C27.7698 1.93912 27.7698 2.305 27.7698 2.67087C27.7698 3.25627 27.7698 3.80508 27.7698 4.39047C27.7698 4.97587 27.7698 5.52468 27.7698 6.11007C27.7698 6.43936 27.7698 6.80523 27.7698 7.20769Z" fill="black"/>
<path d="M20.2326 11.1589C20.5985 11.5248 21.0376 11.7077 21.4766 11.7077C21.8791 11.7077 22.2449 11.5614 22.5376 11.2321C22.8303 10.9394 22.9767 10.5369 22.9767 10.171C22.9767 9.76858 22.7937 9.32953 22.4279 8.96366C20.9278 7.46358 19.4643 5.96351 17.9276 4.50001C17.7813 4.35367 17.5984 4.2439 17.4154 4.17073C17.2691 4.09755 17.1227 4.02438 16.9764 3.98779C16.5373 4.02438 16.1714 4.09755 15.9153 4.2439C15.6592 4.39025 15.4763 4.60978 15.3299 4.93906C15.2202 5.15859 15.1836 5.37811 15.1836 5.59763C15.1836 6.00009 15.3299 6.36596 15.6958 6.69525C17.2325 8.15874 18.7326 9.65882 20.2326 11.1589Z" fill="black"/>
<path d="M37.1726 11.7077C37.6117 11.7077 38.0507 11.5248 38.4166 11.1589C39.9167 9.65882 41.4167 8.19533 42.8802 6.69525C43.2095 6.36596 43.3925 6.00009 43.3925 5.59763C43.3925 5.37811 43.3559 5.15859 43.2461 4.93906C43.0998 4.60978 42.9168 4.42684 42.6607 4.2439C42.4046 4.09755 42.0753 4.02438 41.5997 3.98779C41.4899 4.06097 41.3436 4.09755 41.1606 4.17073C40.9777 4.2439 40.7948 4.35367 40.6484 4.50001C39.1117 5.96351 37.6483 7.46358 36.1482 8.96366C35.7823 9.32953 35.5994 9.76858 35.5994 10.171C35.5994 10.5369 35.7457 10.9394 36.0384 11.2321C36.4043 11.5614 36.7702 11.7077 37.1726 11.7077Z" fill="black"/>
</svg>
