<svg width="25" height="20" viewBox="0 0 25 20" fill="none" xmlns="http://www.w3.org/2000/svg">
<circle cx="12.5" cy="5.5" r="4.125" stroke="white" stroke-width="1.25"/>
<circle cx="21" cy="7" r="2.625" stroke="white" stroke-width="1.25"/>
<circle cx="4" cy="7" r="2.625" stroke="white" stroke-width="1.25"/>
<path d="M18 15L18 13C18 11.3431 19.3431 10 21 10V10C22.6569 10 24 11.3431 24 13V15" stroke="white" stroke-width="1.25"/>
<path d="M1 15L1 13C1 11.3431 2.34315 10 4 10V10C5.65685 10 7 11.3431 7 13V15" stroke="white" stroke-width="1.25"/>
<path d="M7 15.5C7 12.4624 9.46243 10 12.5 10V10C15.5376 10 18 12.4624 18 15.5V19H7V15.5Z" stroke="white" stroke-width="1.25"/>
</svg>
