<svg width="19" height="19" viewBox="0 0 19 19" fill="none" xmlns="http://www.w3.org/2000/svg">
<path d="M12.589 0H5.72228C2.56251 0 0 2.64281 0 5.90159V12.9835C0 16.2423 2.56251 18.8851 5.72228 18.8851H12.589C15.7488 18.8851 18.3113 16.2423 18.3113 12.9835V5.90159C18.3113 2.64281 15.7488 0 12.589 0ZM16.5946 12.9835C16.5946 15.2615 14.7978 17.1146 12.589 17.1146H5.72228C3.51348 17.1146 1.71668 15.2615 1.71668 12.9835V5.90159C1.71668 3.62358 3.51348 1.77048 5.72228 1.77048H12.589C14.7978 1.77048 16.5946 3.62358 16.5946 5.90159V12.9835Z" fill="black"/>
<path d="M9.15546 4.72168C6.62729 4.72168 4.57764 6.83556 4.57764 9.44296C4.57764 12.0504 6.62729 14.1642 9.15546 14.1642C11.6836 14.1642 13.7333 12.0504 13.7333 9.44296C13.7333 6.83556 11.6836 4.72168 9.15546 4.72168ZM9.15546 12.3938C7.57826 12.3938 6.29432 11.0696 6.29432 9.44296C6.29432 7.81522 7.57826 6.49216 9.15546 6.49216C10.7327 6.49216 12.0166 7.81522 12.0166 9.44296C12.0166 11.0696 10.7327 12.3938 9.15546 12.3938Z" fill="black"/>
<path d="M14.1912 4.7216C14.444 4.7216 14.6489 4.51022 14.6489 4.24947C14.6489 3.98872 14.444 3.77734 14.1912 3.77734C13.9384 3.77734 13.7334 3.98872 13.7334 4.24947C13.7334 4.51022 13.9384 4.7216 14.1912 4.7216Z" fill="black"/>
</svg>
