<svg width="16" height="13" viewBox="0 0 16 13" fill="none" xmlns="http://www.w3.org/2000/svg">
<path d="M15.88 1.45995C15.2937 1.70761 14.6693 1.87151 14.0178 1.95166C14.688 1.56682 15.1993 0.961029 15.4392 0.231774C14.8147 0.590625 14.125 0.844059 13.3904 0.984856C12.7974 0.376902 11.9526 0 11.0305 0C9.24184 0 7.80176 1.39858 7.80176 3.11269C7.80176 3.35963 7.8235 3.59646 7.87673 3.82245C5.19074 3.6961 2.8136 2.45636 1.21685 0.567519C0.937984 1.03323 0.774563 1.56682 0.774563 2.14083C0.774563 3.21883 1.35104 4.17408 2.21014 4.72716C1.69138 4.71778 1.18162 4.57265 0.750574 4.34376C0.750574 4.35315 0.750574 4.36542 0.750574 4.3777C0.750574 5.89036 1.87055 7.14598 3.33911 7.43552C3.07598 7.50483 2.78962 7.53804 2.49201 7.53804C2.2851 7.53804 2.07595 7.52649 1.88029 7.48461C2.2986 8.71713 3.48679 9.62328 4.89987 9.65288C3.80089 10.4811 2.40505 10.98 0.893755 10.98C0.629129 10.98 0.374998 10.9684 0.120117 10.9374C1.5512 11.8262 3.24765 12.3338 5.0768 12.3338C11.023 12.3338 14.2735 7.59003 14.2735 3.47804C14.2735 3.34013 14.2682 3.208 14.2615 3.07587C14.9017 2.63759 15.4407 2.09029 15.88 1.45995Z" fill="white"/>
</svg>
