<svg width="32" height="28" viewBox="0 0 32 28" fill="none" xmlns="http://www.w3.org/2000/svg">
<path d="M29.7943 19.1074V9.21924L27.9316 9.84015V19.1074C26.7734 19.4973 25.9364 20.5926 25.9364 21.8808V26.8688C25.9364 27.3829 26.3528 27.8001 26.8677 27.8001H30.8581C31.3722 27.8001 31.7895 27.3829 31.7895 26.8688V21.8808C31.7895 20.5926 30.9525 19.4965 29.7943 19.1074Z" fill="#F6F6F6"/>
<path d="M15.0127 13.5568L5.98639 10.5483V16.8915C5.98639 17.1382 6.08408 17.3759 6.25876 17.5505C8.83346 20.1244 12.2559 21.5417 15.8961 21.5417C19.5363 21.5417 22.9587 20.1244 25.5326 17.5505C25.7073 17.3759 25.805 17.1391 25.805 16.8915V10.5483L16.7786 13.5568C16.1627 13.763 15.5418 13.7332 15.0127 13.5568Z" fill="#F6F6F6"/>
<path d="M15.8953 11.8384C15.9946 11.8384 16.0939 11.8219 16.19 11.7904L31.1539 6.80247C31.5339 6.6758 31.7905 6.31981 31.7905 5.91912C31.7905 5.51843 31.5339 5.16244 31.1539 5.03578L16.19 0.04781C15.9987 -0.0159367 15.7918 -0.0159367 15.6005 0.04781L0.636638 5.03578C0.256642 5.16161 0 5.51843 0 5.91912C0 6.31981 0.256642 6.6758 0.636638 6.80247L15.6005 11.7904C15.6966 11.8219 15.7959 11.8384 15.8953 11.8384Z" fill="#F6F6F6"/>
</svg>
