<svg width="15" height="20" viewBox="0 0 15 20" fill="none" xmlns="http://www.w3.org/2000/svg">
<path d="M8.7014 13.9153C7.57637 13.8241 7.10291 13.2456 6.21987 12.6889C5.73439 15.3304 5.14143 17.8628 3.38362 19.1859C2.84177 15.1932 4.17948 12.1946 4.80174 9.01272C3.74285 7.16099 4.92875 3.43571 7.16453 4.35417C9.91511 5.48235 4.78221 11.2356 8.22869 11.9544C11.8262 12.7045 13.2947 5.47924 11.0634 3.12852C7.8394 -0.264626 1.67992 3.05211 2.4382 7.90948C2.62233 9.09692 3.80598 9.45713 2.91016 11.0968C0.84798 10.6227 0.231731 8.93475 0.311392 6.68461C0.439151 3.00143 3.50161 0.421487 6.57384 0.0643961C10.46 -0.386256 14.1064 1.545 14.6099 5.33577C15.1758 9.61385 12.8558 14.2482 8.7014 13.9153Z" fill="#F1F2F2"/>
</svg>
