<svg width="25" height="29" viewBox="0 0 25 29" fill="none" xmlns="http://www.w3.org/2000/svg">
<path d="M5.97512 10.4255C4.75115 7.36124 5.79538 3.99745 8.1663 2.23423C10.4773 0.51382 13.7726 0.445346 16.1863 2.05449C18.2149 3.41541 20.0637 6.59947 18.6429 10.3741C19.2677 10.5196 19.9096 10.6223 20.5173 10.8363C23.1108 11.7522 24.7456 14.2429 24.5915 16.9733C24.4375 19.678 22.5202 21.9634 19.8583 22.5796C19.3704 22.6909 18.8654 22.7337 18.369 22.7423C16.931 22.7594 15.4845 22.7508 14.0465 22.7508C13.9352 22.7508 13.8154 22.7508 13.6614 22.7508C13.6614 23.6838 13.6614 24.5911 13.6614 25.4983C13.6614 26.3885 13.6614 27.2872 13.6614 28.1945C12.7455 28.1945 11.8639 28.1945 10.9481 28.1945C10.9481 26.3885 10.9481 24.5911 10.9481 22.7508C10.8026 22.7508 10.6827 22.7508 10.5715 22.7508C9.0907 22.7508 7.60138 22.7594 6.12063 22.7508C3.142 22.7337 0.67693 20.6795 0.112018 17.7522C-0.529928 14.4398 1.65269 11.2215 4.98225 10.5795C5.29894 10.5196 5.63275 10.4768 5.97512 10.4255Z" fill="#0D0D0D"/>
</svg>
