<svg width="28" height="28" viewBox="0 0 28 28" fill="none" xmlns="http://www.w3.org/2000/svg">
<path fill-rule="evenodd" clip-rule="evenodd" d="M23.6516 4.02352C21.0493 1.43023 17.5881 0.00173204 13.9007 0C6.30229 0 0.11878 6.15392 0.115734 13.7177C0.114864 16.1356 0.749227 18.496 1.95573 20.5766L0 27.6857L7.30779 25.7779C9.32139 26.8708 11.5882 27.4471 13.8955 27.4476H13.9012C21.4987 27.4476 27.6831 21.2932 27.6857 13.729C27.687 10.0631 26.2547 6.61637 23.6516 4.02352ZM13.9007 25.131H13.8959C11.8401 25.1301 9.82392 24.5802 8.06441 23.5414L7.64629 23.2941L3.30974 24.4265L4.46708 20.2185L4.19471 19.7872C3.04781 17.9716 2.44217 15.8732 2.44304 13.719C2.44565 7.43173 7.58538 2.31703 13.9051 2.31703C16.9655 2.3179 19.8423 3.50564 22.0056 5.66116C24.1684 7.81667 25.3593 10.6815 25.3584 13.7281C25.3558 20.0154 20.2161 25.131 13.9007 25.131ZM20.1852 16.5907C19.841 16.4193 18.1472 15.59 17.8318 15.4753C17.5163 15.361 17.2862 15.3038 17.0569 15.6468C16.8271 15.9897 16.1671 16.7622 15.9661 16.9908C15.7651 17.2195 15.5645 17.2485 15.2199 17.0766C14.8753 16.9051 13.7654 16.5431 12.4501 15.3753C11.4264 14.4664 10.735 13.344 10.534 13.0007C10.3334 12.6573 10.5322 12.4897 10.685 12.3009C11.0578 11.8402 11.4311 11.357 11.546 11.1283C11.6609 10.8997 11.6034 10.6992 11.5173 10.5277C11.4316 10.3563 10.7428 8.66884 10.4557 7.98252C10.1759 7.31438 9.89223 7.40445 9.68078 7.39406C9.4802 7.3841 9.25047 7.38193 9.02074 7.38193C8.79102 7.38193 8.41771 7.46767 8.10227 7.81105C7.78683 8.15442 6.89706 8.9832 6.89706 10.6706C6.89706 12.3581 8.13142 13.9879 8.30371 14.2165C8.47601 14.4452 10.7324 17.9075 14.1874 19.3923C15.0093 19.7456 15.6507 19.9565 16.151 20.1146C16.9764 20.3757 17.7269 20.3389 18.3204 20.2505C18.9822 20.1518 20.3579 19.4213 20.6455 18.6207C20.9322 17.82 20.9322 17.1337 20.8461 16.9908C20.7595 16.8479 20.5298 16.7622 20.1852 16.5907Z" fill="white"/>
</svg>
