<svg width="28" height="28" viewBox="0 0 28 28" fill="none" xmlns="http://www.w3.org/2000/svg">
<circle cx="14" cy="14" r="13" stroke="white" stroke-width="2"/>
<path d="M17.7042 15.9649C18.0011 16.0745 19.5953 16.8664 19.9193 17.0302C20.2436 17.194 20.4598 17.2758 20.5413 17.4123C20.6224 17.5488 20.6224 18.2042 20.3525 18.9689C20.0818 19.7335 18.7869 20.4312 18.1641 20.5255C17.6055 20.6098 16.8991 20.645 16.1222 20.3956C15.6512 20.2447 15.0476 20.0433 14.274 19.7058C11.022 18.2878 8.89826 14.9811 8.73609 14.7627L8.73378 14.7596C8.56322 14.53 7.41211 12.9804 7.41211 11.3762C7.41211 9.76464 8.24958 8.97311 8.54648 8.64517C8.84338 8.31723 9.19475 8.23535 9.41098 8.23535C9.6272 8.23535 9.84343 8.23742 10.0322 8.24693C10.2312 8.25686 10.4983 8.17084 10.7616 8.80894C11.0319 9.4644 11.6801 11.076 11.7608 11.2397C11.8419 11.4035 11.8959 11.595 11.7878 11.8133C11.6797 12.0317 11.3284 12.4932 10.9774 12.9332C10.8337 13.1135 10.6465 13.2736 10.8353 13.6015C11.0245 13.9294 11.6752 15.0013 12.6388 15.8694C13.8768 16.9847 14.9215 17.3304 15.2458 17.4942C15.5702 17.6584 15.7589 17.6307 15.9481 17.4123C16.1373 17.194 16.7586 16.4562 16.9748 16.1287C17.1906 15.8011 17.4073 15.8557 17.7042 15.9649Z" fill="white"/>
</svg>
