<svg width="60" height="51" viewBox="0 0 60 51" fill="none" xmlns="http://www.w3.org/2000/svg">
<path d="M0.0731745 48.4399C2.37817 45.147 4.64658 41.8542 6.95158 38.5979C9.32975 35.1587 11.7445 31.7195 14.1227 28.2803C14.9642 27.0363 15.8789 26.9632 16.9033 28.0242C18.0009 29.1218 19.0986 30.2194 20.2328 31.3536C20.4157 31.2073 20.5255 31.0609 20.6718 30.9512C25.0989 26.5241 29.5259 22.097 33.953 17.67C34.2091 17.4139 34.3554 17.1578 34.3189 16.7553C34.2823 15.5845 34.3189 14.4137 34.3189 13.1332C34.0627 13.1332 33.8432 13.1332 33.6237 13.1332C29.3064 13.1332 25.0257 13.0966 20.7084 13.1332C19.5742 13.1332 18.6961 12.5844 18.7327 11.1209C18.8059 8.30365 18.7327 5.44984 18.7327 2.59603C18.7327 1.42524 19.3181 0.839844 20.4523 0.839844C25.5013 0.839844 30.5138 0.839844 35.5628 0.839844C36.7336 0.839844 37.2824 1.42524 37.2824 2.63262C37.2824 7.38896 37.2824 12.1087 37.2824 16.8651C37.2824 17.1943 37.3922 17.5968 37.5751 17.8529C44.4901 27.7315 51.4417 37.61 58.3567 47.4886C58.5396 47.7081 58.686 47.9642 58.8323 48.2203C59.3811 49.2082 58.7226 50.379 57.5884 50.4156C57.442 50.4156 57.2957 50.4156 57.1127 50.4156C38.7093 50.4156 20.3059 50.4156 1.90254 50.4156C1.02444 50.4156 0.40246 50.1595 0 49.3546C0.0731745 49.0619 0.0731745 48.7692 0.0731745 48.4399ZM15.7691 31.0975C11.964 36.549 8.23213 41.9639 4.42706 47.4154C21.2206 47.4154 37.941 47.4154 54.698 47.4154C48.2952 38.3052 41.9656 29.2681 35.4896 20.0482C35.3433 20.3043 35.2335 20.5238 35.0872 20.7067C30.587 25.207 26.0867 29.7438 21.5499 34.244C20.562 35.2319 19.8303 35.2319 18.8424 34.244C17.8546 33.183 16.8301 32.1585 15.7691 31.0975ZM21.7694 3.84C21.7694 5.99865 21.7694 8.08412 21.7694 10.1696C25.977 10.1696 30.1113 10.1696 34.2823 10.1696C34.2823 8.04753 34.2823 5.96206 34.2823 3.84C30.0747 3.84 25.9404 3.84 21.7694 3.84Z" fill="black"/>
</svg>
