<svg width="54" height="35" viewBox="0 0 54 35" fill="none" xmlns="http://www.w3.org/2000/svg">
<path d="M51.7344 14.7543C47.6366 9.88821 42.9169 5.79044 37.1727 2.97322C33.8432 1.32679 30.3674 0.412109 26.7087 0.412109C25.8672 0.412109 25.0257 0.448697 24.1476 0.558458C20.5255 0.997506 17.1594 2.27806 14.0129 4.10742C8.70777 7.21734 4.3173 11.3151 0.548809 16.1446C0.182936 16.6203 0 16.9861 0 17.3886C0 17.7545 0.146349 18.1203 0.548809 18.5594C1.97571 20.2058 3.36603 21.8888 4.90269 23.4255C8.56142 27.1574 12.6958 30.2307 17.5253 32.3162C20.4889 33.5968 23.5622 34.2919 26.7087 34.2919C27.5502 34.2919 28.4283 34.2553 29.3064 34.1456C32.9285 33.7065 36.258 32.3894 39.4411 30.56C43.3559 28.2916 46.7585 25.4378 49.8318 22.1449C51.149 20.7546 52.4661 19.3643 53.4174 17.7179C53.4174 17.4618 53.4174 17.2422 53.4174 16.9861C52.832 16.2178 52.3198 15.4495 51.7344 14.7543ZM49.6489 17.5349C48.5879 18.6692 47.6 19.8399 46.5024 20.9376C43.5754 23.9011 40.3558 26.4988 36.6238 28.438C33.5139 30.0478 30.2211 31.1088 26.6721 31.1088C26.3794 31.1088 26.0501 31.1088 25.7574 31.0722C23.2695 30.9259 20.9279 30.3039 18.6595 29.316C14.0495 27.3037 10.2078 24.267 6.73206 20.7546C5.70761 19.7302 4.75634 18.6326 3.7319 17.5349L3.62214 17.4252L3.7319 17.3154C5.63444 15.047 7.64674 12.9615 9.84197 11.0956C12.2933 9.01012 14.9276 7.18075 17.8546 5.79044C20.7816 4.40012 23.7451 3.66838 26.7453 3.66838C29.1966 3.66838 31.6846 4.1806 34.2091 5.20504C37.3922 6.52218 40.246 8.35154 42.8803 10.5102C45.295 12.4859 47.4537 14.6811 49.4294 17.0227C49.5026 17.0959 49.5757 17.2057 49.6855 17.3154L49.7953 17.4252L49.6489 17.5349Z" fill="black"/>
<path d="M16.2446 17.3154V17.352C16.2812 23.1328 20.9278 27.7794 26.6354 27.7794H26.672C32.4528 27.7428 37.0994 23.0962 37.0994 17.3886V17.352C37.0628 11.5712 32.4162 6.92464 26.7086 6.92464H26.672V6.7417V6.92464C20.9278 6.92464 16.2446 11.6078 16.2446 17.3154ZM26.672 10.1077C30.6966 10.1077 33.9163 13.3274 33.9163 17.3154C33.9163 21.34 30.6966 24.5597 26.7086 24.5597C22.684 24.5597 19.5009 21.34 19.4643 17.352C19.4643 13.3274 22.684 10.1443 26.672 10.1077Z" fill="black"/>
</svg>
