<svg width="16" height="15" viewBox="0 0 16 15" fill="none" xmlns="http://www.w3.org/2000/svg">
<path d="M12.4975 9.38588C12.858 9.51895 14.7939 10.4806 15.1873 10.6794C15.5811 10.8783 15.8437 10.9777 15.9426 11.1434C16.0411 11.3092 16.0411 12.1051 15.7134 13.0336C15.3847 13.9621 13.8123 14.8092 13.0559 14.9237C12.3777 15.0261 11.5199 15.0688 10.5765 14.766C10.0047 14.5827 9.27168 14.3382 8.33233 13.9284C4.38347 12.2065 1.80461 8.19124 1.60769 7.9261L1.60489 7.92233C1.39778 7.64352 0 5.7618 0 3.81391C0 1.85699 1.01693 0.895854 1.37745 0.497641C1.73797 0.0994279 2.16464 0 2.4272 0C2.68976 0 2.95232 0.00251108 3.18156 0.0140608C3.42324 0.0261126 3.74746 -0.0783361 4.06721 0.696497C4.39541 1.49242 5.18259 3.44934 5.28056 3.6482C5.37902 3.84705 5.44466 4.07955 5.31338 4.34469C5.1821 4.60983 4.75544 5.17024 4.32927 5.70454C4.15473 5.92348 3.92747 6.11782 4.15672 6.51603C4.38646 6.91425 5.17663 8.21585 6.34671 9.26988C7.84998 10.6242 9.11852 11.044 9.51236 11.2429C9.90621 11.4422 10.1354 11.4086 10.3652 11.1434C10.5949 10.8783 11.3493 9.98245 11.6119 9.58473C11.8739 9.18702 12.137 9.25331 12.4975 9.38588Z" fill="#0D0D0D"/>
</svg>
