<svg width="27" height="27" viewBox="0 0 27 27" fill="none" xmlns="http://www.w3.org/2000/svg">
<path d="M26.2005 20.7679C26.3839 20.677 26.5532 20.5895 26.6949 20.4884C26.8172 20.4014 26.9183 20.3062 27 20.1884C27 19.9538 27 19.7197 27 19.4856C26.9183 19.3673 26.8177 19.2727 26.6955 19.1851C26.5543 19.0845 26.385 18.997 26.2016 18.9067C24.9478 18.2888 23.7004 17.6612 22.4519 17.0374C22.4108 17.0169 22.3724 16.9958 22.3313 16.9731C22.2902 16.9504 22.2464 16.9255 22.1923 16.8958L21.7596 16.658L22.1928 16.4217C22.3005 16.3628 22.3816 16.3152 22.4757 16.2682C23.7161 15.6482 24.9559 15.0255 26.2011 14.4114C26.3844 14.3211 26.5532 14.2341 26.6944 14.133C26.8166 14.046 26.9178 13.9508 26.9995 13.833C26.9995 13.5984 26.9995 13.3643 26.9995 13.1297C26.9178 13.0113 26.8172 12.9167 26.6949 12.8292C26.5537 12.7286 26.3844 12.641 26.2011 12.5508C24.9472 11.9329 23.6999 11.3053 22.4514 10.6815C22.4103 10.661 22.3719 10.6399 22.3308 10.6172C22.2897 10.5945 22.2459 10.5696 22.1918 10.5399L21.759 10.302L22.1923 10.0658C22.2999 10.0069 22.3811 9.95932 22.4752 9.91229C23.7155 9.2928 24.9553 8.669 26.2011 8.05546C26.3844 7.96572 26.5527 7.87815 26.6938 7.77707C26.8155 7.69004 26.9167 7.5949 26.9989 7.47652C26.9989 7.24245 26.9989 7.00893 26.9989 6.77541C26.9183 6.66081 26.8199 6.56783 26.702 6.48242C26.5646 6.38296 26.4007 6.29593 26.2216 6.20673C22.195 4.19963 18.1679 2.19144 14.1483 0.167034C14.0325 0.108653 13.9249 0.0670297 13.8232 0.0400016C13.721 0.0129735 13.6247 0 13.5284 0C13.4337 0 13.3385 0.0124329 13.2385 0.0389205C13.1379 0.065408 13.0324 0.106491 12.9182 0.16379C8.80996 2.23306 4.69356 4.2845 0.578784 6.33809C0.453831 6.40026 0.348352 6.46512 0.265592 6.5381C0.182831 6.61162 0.121166 6.69054 0.0746469 6.79703C0.0248823 6.91163 0.00216368 7.02515 0.00216368 7.1338C0.00216368 7.27921 0.0421917 7.41759 0.120625 7.54138C0.199058 7.66517 0.316438 7.77491 0.477632 7.85707C1.38584 8.32033 2.30161 8.7717 3.21685 9.22956C3.75182 9.49714 4.28625 9.76472 4.86341 10.0539L5.31778 10.2815L4.87477 10.5312C4.81689 10.5642 4.76766 10.5929 4.7206 10.6199C4.67354 10.6469 4.62811 10.6723 4.57888 10.6972C3.22388 11.3756 1.86725 12.0502 0.514414 12.7302C0.338075 12.8189 0.210418 12.934 0.126034 13.06C0.0421917 13.1865 0 13.3249 0 13.473C0 13.5643 0.0162276 13.6605 0.0524692 13.76C0.0957428 13.8773 0.156867 13.966 0.240168 14.0465C0.324011 14.1265 0.432195 14.1973 0.562015 14.2617C1.89538 14.9233 3.22604 15.5904 4.55725 16.2558C4.65083 16.3023 4.73629 16.3493 4.86611 16.418L5.31237 16.6526L4.87044 16.8942C4.75955 16.9547 4.67895 17.0023 4.58483 17.0499C3.22172 17.7321 1.85698 18.4105 0.496564 19.0954C0.327797 19.1802 0.205009 19.2927 0.12333 19.4181C0.0421917 19.5435 0.00054092 19.6819 0.00054092 19.8294C0.00054092 19.9262 0.0189322 20.0273 0.0584193 20.1305C0.103316 20.2462 0.166062 20.3322 0.252069 20.4122C0.338075 20.4911 0.448963 20.5614 0.581489 20.6268C3.2374 21.9506 5.89115 23.2782 8.54545 24.6048C10.0449 25.3545 11.5438 26.1048 13.0437 26.8535C13.1427 26.9032 13.2536 26.9492 13.3699 27C13.4738 27 13.5771 27 13.6809 27C15.8906 25.9021 18.1013 24.8053 20.3099 23.7058C22.2734 22.7279 24.2343 21.7436 26.2005 20.7679ZM3.3153 7.47435C3.28014 7.45651 3.24876 7.43868 3.21685 7.41976C3.18493 7.40084 3.15086 7.38084 3.10812 7.35597L2.67647 7.10839L3.11948 6.88136C3.34991 6.76351 3.54519 6.66081 3.74479 6.5608C6.88861 4.98993 10.033 3.42068 13.1746 1.84602C13.2276 1.81953 13.2834 1.79575 13.3434 1.77791C13.4034 1.76061 13.4689 1.74926 13.5365 1.7498C13.5933 1.7498 13.6506 1.75737 13.7058 1.77196C13.7615 1.78656 13.8145 1.80764 13.8665 1.83359C17.1434 3.47852 20.424 5.1175 23.7036 6.75865C23.7767 6.79541 23.8383 6.83108 23.9232 6.87703L24.3078 7.08461L23.9503 7.33543C23.9243 7.35327 23.9005 7.37219 23.8708 7.39435C23.841 7.41597 23.8048 7.44246 23.7566 7.46624C20.4527 9.11874 17.1488 10.7718 13.84 12.4162C13.787 12.4421 13.735 12.4578 13.6831 12.4686C13.6312 12.4789 13.5792 12.4837 13.5268 12.4837C13.4786 12.4837 13.4305 12.4794 13.3818 12.4702C13.3331 12.4605 13.2834 12.4459 13.2325 12.4205C9.92371 10.7783 6.61977 9.12577 3.3153 7.47435ZM3.35965 13.8519C3.31746 13.8308 3.2796 13.8092 3.23957 13.7865C3.19954 13.7638 3.15789 13.7389 3.1065 13.7097L2.66619 13.4605L3.1184 13.2335C3.73884 12.9216 4.31978 12.6286 4.90181 12.3372C5.54497 12.0156 6.18866 11.7021 6.82154 11.375C6.87455 11.3475 6.92972 11.3248 6.98814 11.3086C7.04602 11.2923 7.10768 11.2832 7.16881 11.2832C7.23101 11.2832 7.29268 11.2923 7.3511 11.3086C7.40952 11.3248 7.46415 11.3475 7.51716 11.374C9.34114 12.2924 11.1738 13.1978 12.9978 14.1238C13.1941 14.2233 13.3629 14.2654 13.5273 14.266C13.6918 14.2654 13.86 14.2238 14.0553 14.1249C15.8717 13.2043 17.6973 12.3054 19.5131 11.3907C19.571 11.3615 19.63 11.3367 19.6933 11.3183C19.7565 11.2999 19.8236 11.2891 19.8929 11.2896C19.9556 11.2896 20.0189 11.2988 20.0795 11.315C20.1401 11.3318 20.1979 11.3556 20.2547 11.3842C21.3869 11.961 22.5277 12.5248 23.6669 13.0946C23.7123 13.1173 23.7545 13.1411 23.7978 13.1654C23.841 13.1897 23.8854 13.2157 23.9368 13.2443L24.3452 13.4719L23.9443 13.7124C23.9081 13.7341 23.8784 13.753 23.8481 13.7719C23.8172 13.7908 23.7853 13.8103 23.7474 13.8292C20.4522 15.4774 17.1569 17.1234 13.8638 18.7748C13.8129 18.8002 13.7605 18.8213 13.7047 18.8364C13.649 18.8516 13.5906 18.8597 13.5316 18.8597C13.4716 18.8597 13.4121 18.851 13.3564 18.8359C13.3001 18.8208 13.2471 18.7991 13.1963 18.7732C9.9183 17.1293 6.63871 15.4914 3.35965 13.8519ZM13.7285 25.1794C13.6663 25.1994 13.5949 25.214 13.5187 25.2134C13.4667 25.2134 13.4126 25.207 13.3602 25.1934C13.3077 25.1799 13.2563 25.1599 13.206 25.1351C9.92209 23.4863 6.63438 21.8447 3.34775 20.2013C3.31097 20.183 3.27689 20.1646 3.24119 20.1446C3.20549 20.1246 3.16817 20.104 3.12327 20.0792L2.7073 19.8516L3.11461 19.6094C3.15951 19.5824 3.20008 19.557 3.24119 19.5321C3.28284 19.5067 3.32557 19.4813 3.37426 19.457C4.52155 18.8835 5.66992 18.3153 6.81126 17.7364C6.86643 17.7083 6.92323 17.685 6.98327 17.6683C7.04331 17.6515 7.10606 17.6423 7.16989 17.6423C7.23372 17.6423 7.297 17.6515 7.35651 17.6683C7.41655 17.685 7.47334 17.7083 7.52798 17.7358C9.35196 18.6548 11.1846 19.5597 13.0091 20.4846C13.2006 20.5814 13.3656 20.6224 13.5268 20.623C13.6874 20.6224 13.8519 20.5819 14.0428 20.4857C15.8679 19.5619 17.7005 18.6575 19.5245 17.7396C19.5797 17.7115 19.637 17.6877 19.6987 17.6704C19.7598 17.6531 19.8252 17.6423 19.8923 17.6429C19.9529 17.6429 20.014 17.6515 20.0724 17.6672C20.1309 17.6829 20.1871 17.7056 20.2418 17.7337C21.3825 18.3137 22.5309 18.8824 23.6777 19.4565C23.7182 19.477 23.7566 19.4975 23.7994 19.5208C23.8421 19.544 23.8897 19.5705 23.9503 19.6035L24.4041 19.8494L23.9433 20.0824C23.6019 20.2549 23.3082 20.4046 23.0129 20.5522C19.9735 22.0706 16.934 23.588 13.8962 25.1086C13.8459 25.134 13.7913 25.1594 13.7285 25.1794Z" fill="white"/>
</svg>
