<svg width="27" height="30" viewBox="0 0 27 30" fill="none" xmlns="http://www.w3.org/2000/svg">
<path d="M24.2748 30H27C26.5005 29.1624 25.8965 28.151 25.3485 27.2333C24.7133 26.1702 24.1542 25.2344 23.9215 24.8382C23.0334 23.3311 22.1446 21.824 21.2565 20.3162C21.1963 20.2135 21.1471 20.114 21.1069 20.0403L20.9794 19.8037L21.2365 19.6906C21.427 19.6066 21.6126 19.5375 21.7837 19.4664C21.9555 19.3953 22.1121 19.3236 22.2485 19.2383C22.6018 19.0179 22.8623 18.7561 23.0445 18.4524C23.226 18.148 23.3292 17.799 23.3521 17.3983C23.3576 17.304 23.3611 17.2103 23.3611 17.1185C23.3611 16.9918 23.3611 16.8651 23.3611 16.7391C23.3611 14.6969 23.359 12.654 23.3597 10.6118C23.3597 8.95476 23.3611 7.29772 23.3645 5.64067C23.3645 5.63615 23.3645 5.63033 23.3645 5.62387C23.3645 4.91361 23.2537 4.24795 23.0195 3.62818C22.7854 3.0084 22.4286 2.43257 21.9299 1.90069C21.3265 1.25829 20.6483 0.787161 19.8932 0.473718C19.1382 0.160922 18.3048 0.00452391 17.3883 0.00387764C16.1573 0.00129255 14.9263 0 13.696 0C12.3251 0 10.9549 0.00129255 9.58467 0.00646273C9.18496 0.00775528 8.77833 0.0452391 8.38 0.108574C7.16772 0.301163 6.06142 0.874408 5.21698 1.68548C4.37184 2.49655 3.79133 3.54287 3.62092 4.67579C3.57174 5.00345 3.54333 5.33498 3.54264 5.662C3.5371 9.48729 3.54264 13.3132 3.53641 17.1398V17.1411V17.1456C3.53641 17.6213 3.62577 18.0375 3.81489 18.3929C4.00469 18.7484 4.29426 19.0495 4.72514 19.2977C4.84775 19.3682 4.98907 19.427 5.14701 19.4858C5.30496 19.5446 5.47953 19.6028 5.66449 19.6764L5.93812 19.7857L5.80165 20.0325C5.75731 20.1133 5.70328 20.2161 5.64232 20.3201C4.37739 22.5019 1.65009 27.1667 0 30H2.69681C3.27317 29.1573 3.82458 28.3546 3.82458 28.3546L3.90633 28.2357H4.05804C6.10299 28.2376 8.81296 28.2383 11.5396 28.2383C16.4885 28.2383 21.49 28.2363 22.6635 28.2357C22.8311 28.2357 22.9205 28.2357 22.9205 28.2357H23.0729L24.2748 30ZM21.5129 15.6586V15.665C21.5122 16.1025 21.3591 16.5155 21.1062 16.8593C20.8527 17.2044 20.498 17.483 20.0851 17.6523C19.8101 17.7654 19.5074 17.8294 19.1943 17.83H19.1915C18.7184 17.83 18.2736 17.6891 17.9051 17.4539C17.5359 17.218 17.2401 16.8878 17.0613 16.5006C16.9422 16.2428 16.875 15.9597 16.875 15.665C16.875 15.6644 16.875 15.6637 16.875 15.6631C16.8757 15.0717 17.1389 14.5321 17.558 14.1424C17.9778 13.752 18.5576 13.5078 19.1943 13.5065H19.1929H19.1984C19.8357 13.5065 20.4156 13.7469 20.8333 14.1359C21.2524 14.525 21.5122 15.0646 21.5129 15.6586ZM19.8718 22.2331H19.4042C15.4369 22.2331 11.5319 22.2331 7.56604 22.2331H7.09844L7.3222 21.8505C7.51409 21.5235 7.68658 21.2275 7.86045 20.9315C8.04403 20.6187 8.22206 20.2923 8.43265 19.9731C8.47837 19.9052 8.5324 19.8574 8.59059 19.816C8.64948 19.7753 8.71321 19.7423 8.78664 19.7184C8.83582 19.7029 8.88985 19.6913 8.95428 19.6906C10.5531 19.6861 12.1512 19.6842 13.7501 19.6842C15.1716 19.6842 16.5931 19.6855 18.0145 19.6881C18.0859 19.6887 18.1476 19.7003 18.2092 19.7191C18.2709 19.7385 18.3304 19.7637 18.3914 19.805C18.4316 19.8335 18.4738 19.8697 18.5099 19.9278C18.8895 20.5495 19.2525 21.1777 19.6473 21.8498L19.8718 22.2331ZM5.45874 6.32314C5.45874 6.31473 5.45874 6.30569 5.45874 6.29599C5.45874 5.34726 5.7871 4.47673 6.36484 3.79298C6.94189 3.10922 7.76763 2.61353 8.74784 2.40672C9.07897 2.33692 9.41772 2.3143 9.744 2.31301C11.1586 2.30913 12.5731 2.3072 13.9877 2.3072C15.0483 2.3072 16.1095 2.30849 17.1701 2.31043C18.2688 2.31237 19.2601 2.65424 20.0172 3.25463C20.7751 3.85437 21.2967 4.71068 21.4741 5.72146C21.5115 5.93602 21.5163 6.14606 21.5163 6.3464C21.5163 6.4414 21.5149 6.53511 21.5149 6.62559C21.5149 6.63981 21.5149 6.65403 21.5149 6.6676V6.66308V6.66889C21.517 7.0754 21.5177 7.48255 21.5177 7.88906C21.5177 8.33434 21.517 8.77897 21.5163 9.22361C21.5156 9.51508 21.4706 9.77876 21.3708 10.0101C21.2725 10.2415 21.1166 10.4399 20.9123 10.5872C20.7758 10.6861 20.6199 10.7617 20.4481 10.8154C20.2195 10.8871 19.9639 10.9207 19.684 10.9207C18.8285 10.9214 17.973 10.922 17.1175 10.922C15.9176 10.922 14.7171 10.9214 13.5173 10.9214C12.33 10.9214 11.1433 10.9117 9.95944 10.9117C9.12261 10.9117 8.28648 10.9162 7.45174 10.933C7.43165 10.9336 7.41225 10.9336 7.39286 10.9336C7.0832 10.9336 6.79711 10.8852 6.54426 10.7882C6.29141 10.6913 6.0732 10.5439 5.90486 10.3533C5.79264 10.2266 5.70259 10.0819 5.63816 9.92352C5.55157 9.71219 5.50793 9.4763 5.50793 9.22361C5.50793 9.20164 5.50793 9.17966 5.50931 9.1564V9.15769C5.51347 9.0084 5.51555 8.85847 5.51555 8.70788C5.51486 7.9246 5.46359 7.12839 5.45874 6.32314ZM5.45874 15.5978C5.45874 15.5758 5.45874 15.5539 5.46013 15.5306V15.5312V15.5306C5.47883 14.9502 5.74484 14.4268 6.1591 14.0506C6.57335 13.6738 7.13932 13.4399 7.75654 13.4399C7.77525 13.4399 7.79395 13.4399 7.81335 13.4405H7.81404C8.28441 13.4515 8.7236 13.5937 9.08659 13.8264C9.45028 14.059 9.73984 14.3809 9.9151 14.757C10.0322 15.0078 10.0973 15.2824 10.0973 15.5674C10.0973 15.5913 10.0966 15.6153 10.0959 15.6385V15.6392C10.073 16.2286 9.80704 16.7592 9.39209 17.1405C8.97714 17.5224 8.40979 17.7576 7.7891 17.7576C7.7704 17.7576 7.75169 17.7576 7.73368 17.757C7.09706 17.7428 6.52625 17.4985 6.11753 17.1094C5.70744 16.721 5.45874 16.1859 5.45874 15.5978ZM22.056 26.7622C16.3395 26.7622 10.6487 26.7622 4.89278 26.7622H4.41895L4.65102 26.377C4.93504 25.9059 5.19966 25.4657 5.46567 25.0256C5.66933 24.6889 5.87854 24.3645 6.05865 24.0362C6.09398 23.9722 6.13693 23.9121 6.19166 23.8604C6.24638 23.8087 6.31358 23.766 6.38354 23.7389C6.42996 23.7208 6.47706 23.7085 6.52278 23.7008C6.58374 23.6904 6.64332 23.6872 6.7022 23.6872C11.2237 23.6917 15.7458 23.6898 20.268 23.6969C20.3532 23.6975 20.4301 23.7124 20.5056 23.7363C20.5811 23.7602 20.6546 23.7932 20.7252 23.8423C20.7716 23.8759 20.8187 23.9166 20.8582 23.978C21.3341 24.7316 21.7865 25.4948 22.2423 26.2523C22.2631 26.2865 22.2756 26.3162 22.2853 26.3402C22.295 26.3641 22.3026 26.3841 22.3123 26.4074L22.4647 26.7622H22.056Z" fill="white"/>
</svg>
