<svg width="28" height="25" viewBox="0 0 28 25" fill="none" xmlns="http://www.w3.org/2000/svg">
<path d="M26.852 20.5535C26.8987 20.5564 26.944 20.5586 26.9878 20.5586C27.1904 20.5586 27.3573 20.524 27.4954 20.459C27.6334 20.3934 27.7469 20.2989 27.8442 20.1595C27.9035 20.0739 27.9562 19.9706 28 19.8482C28 18.4582 28 17.0683 28 15.679C27.9829 15.6377 27.9651 15.5979 27.9458 15.561C27.8827 15.4371 27.81 15.3389 27.7291 15.2615C27.6171 15.1545 27.488 15.0837 27.3284 15.0416C27.2913 15.032 27.252 15.0239 27.2112 15.018C27.1362 15.0062 27.0553 14.9988 26.9677 14.9988C26.9447 14.9988 26.921 15.0003 26.8972 15.001C26.8735 15.0018 26.8512 15.0018 26.8267 15.0032C26.7295 15.0099 26.6331 15.0136 26.5366 15.0165C26.452 15.0187 26.3674 15.0195 26.2828 15.0195C26.0817 15.0195 25.8769 15.015 25.6661 15.0121C25.5682 15.0106 25.4695 15.0099 25.3678 15.0099H24.8691L25.2016 14.641C25.2498 14.5871 25.2876 14.5436 25.3225 14.5045C25.3574 14.4654 25.3893 14.43 25.4249 14.3946C26.1062 13.7166 26.7941 13.0504 27.4568 12.3643C27.5599 12.2573 27.6549 12.1333 27.7492 11.9998C27.8301 11.8854 27.9117 11.7652 27.9993 11.6442C27.9993 7.99888 27.9993 4.35357 27.9993 0.708257C27.9258 0.504633 27.8308 0.362982 27.718 0.260432C27.5985 0.152718 27.4531 0.08263 27.2661 0.0405772C27.1429 0.0132798 27.0004 0 26.8408 0H26.8386H26.8371C21.753 0.00663991 16.6682 0.00811545 11.5841 0.00811545C8.12743 0.00811545 4.67075 0.00737768 1.21481 0.00737768C1.17474 0.00737768 1.13541 0.00737768 1.09533 0.00737768C0.863799 0.00737768 0.676791 0.0383639 0.532824 0.0929587C0.387374 0.147554 0.284223 0.222806 0.204076 0.325356C0.150645 0.393968 0.106862 0.47586 0.0734674 0.576197C0.0289417 0.71047 0.00445257 0.877944 0.00445257 1.08009C0.00445257 1.14428 0.00445257 1.20846 0.00445257 1.27265C0.00445257 2.82344 0.00519467 4.37423 0.00519467 5.92501C0.00519467 7.71484 0.00445257 9.50466 0 11.2945V11.2997C0 11.4922 0.0304259 11.6545 0.0912777 11.8013C0.15213 11.9482 0.244891 12.0824 0.382921 12.216C1.12798 12.9368 1.85598 13.6731 2.58769 14.4012C2.65447 14.4676 2.70716 14.5311 2.78805 14.6189L3.09602 14.9553L2.63963 14.9885C2.58398 14.9929 2.53648 14.9973 2.48973 15.001C2.44372 15.0047 2.39771 15.0084 2.34873 15.0084C2.30495 15.0084 2.26116 15.0084 2.21738 15.0084C1.9621 15.0084 1.70756 15.0062 1.45525 15.0062C1.26305 15.0062 1.07233 15.0077 0.882351 15.0121C0.622618 15.0187 0.408152 15.1146 0.255281 15.2666C0.103151 15.4193 0.00964724 15.6289 0.00742095 15.8827C0.00296838 16.5127 0.00148419 17.142 0.00148419 17.7721C0.00148419 18.4021 0.00371048 19.0322 0.00742095 19.6615C0.00964724 19.9197 0.105378 20.1337 0.26196 20.2894C0.418542 20.4443 0.638202 20.5409 0.900162 20.5468C1.02706 20.549 1.15544 20.5505 1.28457 20.5505C1.49755 20.5505 1.71498 20.5483 1.94281 20.5483H2.22629L2.15876 20.822C2.06228 21.2123 2.01405 21.5812 2.01405 21.9257C2.01479 22.496 2.14466 22.9999 2.41478 23.444C2.6849 23.8874 3.09825 24.2755 3.68228 24.5979C4.17429 24.8694 4.66333 24.9985 5.14272 24.9993C5.75643 24.9985 6.36124 24.7875 6.9423 24.3574C7.38756 24.0269 7.70443 23.6587 7.91222 23.2552C8.11927 22.8516 8.21945 22.4112 8.21945 21.9287C8.21945 21.5871 8.16899 21.2248 8.0688 20.8434L7.99608 20.566H8.28401C9.13519 20.566 9.9797 20.566 10.8301 20.566H11.1166L11.0453 20.8419C10.9474 21.2241 10.8977 21.5871 10.8977 21.9287C10.8977 22.4407 11.0082 22.904 11.2375 23.3231C11.4676 23.7421 11.8186 24.1191 12.3151 24.4496C12.8709 24.8192 13.4364 24.9985 14.0004 24.9985C14.5414 24.9985 15.0868 24.8333 15.6278 24.4895C16.1443 24.1604 16.5109 23.7805 16.7506 23.3563C16.9903 22.9313 17.1053 22.4584 17.106 21.9324C17.106 21.5878 17.0556 21.2204 16.9561 20.8338L16.8849 20.5579H17.1721C18.0248 20.5579 18.8648 20.5579 19.7175 20.5579H20.0024L19.9334 20.8331C19.8362 21.2182 19.7872 21.5834 19.7872 21.9265C19.788 22.4724 19.9104 22.9601 20.1635 23.3939C20.4173 23.8277 20.8046 24.2128 21.3516 24.5404C21.8695 24.851 22.3912 24.9993 22.9055 25C23.4836 25 24.0595 24.8119 24.6183 24.4268C25.0962 24.0962 25.4375 23.7222 25.6617 23.3076C25.885 22.8929 25.9941 22.4355 25.9941 21.9294C25.9941 21.5834 25.9429 21.2145 25.8405 20.825L25.7678 20.5476H26.0557C26.2182 20.5476 26.3822 20.5417 26.5492 20.5417C26.6486 20.5439 26.7496 20.5461 26.852 20.5535ZM2.00737 11.3218C1.94206 11.2554 1.8916 11.1779 1.85301 11.0931C1.81517 11.0082 1.78845 10.9167 1.78771 10.8149C1.78251 8.9233 1.78103 7.03093 1.78103 5.13929C1.78103 4.15068 1.78103 3.16207 1.78177 2.17346C1.78177 2.1137 1.78622 2.06796 1.78993 1.99566L1.79958 1.78466H2.01182C10.0109 1.78466 17.9869 1.78466 26.0008 1.78466H26.2234V2.00599C26.2234 2.10854 26.2234 2.20519 26.2234 2.30257C26.2234 3.37898 26.2234 4.45612 26.2234 5.53252C26.2234 7.27218 26.2242 9.0111 26.2279 10.75V10.7773L26.2264 10.7825C26.2234 10.888 26.2064 10.9905 26.1655 11.0864C26.1218 11.1912 26.0535 11.2827 25.9711 11.3638C24.8275 12.4904 23.6892 13.6221 22.5552 14.759C22.4721 14.8424 22.3779 14.9103 22.2718 14.9531C22.1656 14.9966 22.0521 15.0136 21.9356 15.0128C19.2603 15.0106 16.5858 15.0091 13.9106 15.0091C11.2999 15.0091 8.68919 15.0099 6.0785 15.0121C5.96645 15.0121 5.85513 14.9981 5.74753 14.9575C5.63992 14.9169 5.54197 14.8498 5.45663 14.7642C4.31083 13.6155 3.15391 12.4749 2.00737 11.3218ZM6.44732 21.8866V21.8888C6.44436 22.2511 6.29148 22.5801 6.05105 22.8162C5.81061 23.053 5.47741 23.2006 5.11378 23.2006H5.10191C4.73754 23.1976 4.40656 23.0457 4.16909 22.8066C3.93088 22.5676 3.78246 22.2363 3.78246 21.8741V21.8623V21.863C3.78543 21.5008 3.93756 21.1717 4.17874 20.9349C4.41918 20.6981 4.75164 20.5505 5.11601 20.5505H5.12788C5.49225 20.5535 5.82322 20.7047 6.06143 20.9445C6.29965 21.1835 6.44807 21.5148 6.44807 21.8763V21.8866H6.44732ZM15.3347 21.8748C15.3347 21.8748 15.3347 21.8756 15.3347 21.8748V21.877C15.3339 22.2393 15.1848 22.5698 14.9458 22.8081C14.7068 23.0479 14.3751 23.1984 14.01 23.2006H14.0085H14.0026C13.6375 23.2006 13.3043 23.0523 13.0638 22.814C12.8256 22.5786 12.675 22.2526 12.6698 21.894L12.6691 21.88V21.8763C12.6691 21.5133 12.8182 21.1821 13.0572 20.9423C13.2961 20.7025 13.6278 20.552 13.9937 20.5505H13.9922H13.9937H14.0011C14.3662 20.5505 14.6994 20.6988 14.9399 20.9364C15.181 21.1739 15.3324 21.5045 15.3347 21.8674V21.8726V21.8748ZM24.2227 21.8925V21.8933C24.2183 22.2548 24.0654 22.5823 23.8242 22.8177C23.5838 23.0538 23.2513 23.2006 22.8884 23.2006H22.8721C22.5085 23.1962 22.179 23.0442 21.9423 22.8044C21.7048 22.5646 21.5579 22.2348 21.5579 21.8733C21.5579 21.8667 21.5579 21.8608 21.5579 21.8564V21.8571C21.5623 21.4956 21.7145 21.1673 21.9556 20.9319C22.1961 20.6959 22.5285 20.5498 22.8914 20.5498H22.9077C23.2714 20.5542 23.6009 20.7062 23.8383 20.9452C24.0758 21.1843 24.2235 21.5148 24.2227 21.8756V21.8925ZM26.2056 17.0196C26.2056 17.5198 26.2056 18.0215 26.2056 18.5431V18.7644H25.983C18.004 18.7644 10.022 18.7644 2.00366 18.7644H1.78103V18.5431C1.78103 18.1122 1.78103 17.699 1.78103 17.2866C1.78103 17.2047 1.78103 17.1236 1.78103 17.0203V16.799H2.00366C10.0027 16.799 17.9839 16.799 25.983 16.799H26.2056V17.0196Z" fill="white"/>
</svg>
