<svg width="17" height="16" viewBox="0 0 17 16" fill="none" xmlns="http://www.w3.org/2000/svg">
<path d="M16.0335 15.0731L16.0374 15.0723V9.56568C16.0374 6.87151 15.4235 4.79639 12.0876 4.79639C10.4838 4.79639 9.4081 5.62748 8.96835 6.41467H8.92184V5.04787H5.75928V15.0731H9.05268V10.1096C9.05268 8.80304 9.31511 7.53892 11.0292 7.53892C12.7181 7.53892 12.7433 9.03072 12.7433 10.1937V15.0746H16.0335V15.0731Z" fill="white"/>
<path d="M4.38895 4.79639H0.962891V15.0746H4.38895V4.79639Z" fill="white"/>
<path d="M2.6769 0C1.73095 0 0.963867 0.76416 0.963867 1.70494C0.963867 2.64642 1.73165 3.42606 2.6769 3.42606C3.62284 3.42606 4.38992 2.64642 4.38992 1.70494C4.38922 0.763457 3.62214 0 2.6769 0Z" fill="white"/>
</svg>
