<svg width="39" height="28" viewBox="0 0 39 28" fill="none" xmlns="http://www.w3.org/2000/svg">
<path d="M29.7392 21.527C29.3182 21.7787 29.0022 21.756 28.6552 21.3903C27.0565 19.7097 25.4692 18.0171 23.8674 16.3398C23.6872 16.1521 23.4628 15.9795 23.2281 15.8895C22.8843 15.756 22.5744 15.9047 22.351 16.2074C22.1266 16.5112 22.0916 16.8497 22.2666 17.1904C22.3376 17.3293 22.4375 17.4573 22.5435 17.5701C24.1031 19.2301 25.6606 20.8923 27.2346 22.5371C27.4436 22.7563 27.4385 22.9028 27.281 23.1219C26.7951 23.8001 25.7708 23.9368 25.1943 23.3422C23.8396 21.9426 22.5085 20.5169 21.1713 19.0978C20.9088 18.8189 20.638 18.5933 20.2283 18.6735C19.6282 18.7918 19.3162 19.4493 19.6138 20.0091C19.7002 20.1719 19.8227 20.3173 19.9473 20.4529C21.2176 21.8362 22.492 23.2163 23.8169 24.6529C23.6882 24.8297 23.5647 25.0434 23.401 25.2149C22.8338 25.8094 22.2666 25.8431 21.6942 25.2528C20.357 23.876 19.0455 22.4699 17.7227 21.0779C17.5961 20.9444 17.4705 20.8034 17.3264 20.6938C16.9794 20.4312 16.5193 20.4714 16.2218 20.773C15.9356 21.0616 15.8687 21.5259 16.0787 21.8938C16.1703 22.0543 16.2918 22.1986 16.4153 22.3343C17.5394 23.5635 18.6667 24.7885 19.8855 26.1154C19.5108 26.0839 19.202 26.1263 18.9467 26.0221C18.3064 25.7628 17.6064 25.5512 17.0772 25.1205C14.2823 22.8485 11.509 20.544 8.78002 18.1842C7.85353 17.3835 7.0691 16.3962 6.24453 15.4707C6.14056 15.3535 6.12409 15.0736 6.16835 14.8967C6.81072 12.3167 7.47573 9.74309 8.12324 7.1641C8.25398 6.64331 8.33633 6.10951 8.44339 5.56485C10.2305 5.56485 12.0093 5.56485 13.7573 5.56485C13.2364 6.36231 12.662 7.1283 12.2132 7.96807C11.8858 8.58 11.6532 9.27221 11.5018 9.95792C11.1189 11.6928 12.0155 12.896 13.7985 13.1749C15.4353 13.432 16.7612 12.8223 17.8328 11.5431C18.0912 11.2349 18.362 11.0386 18.7531 10.9485C19.1526 10.8563 19.5211 10.623 19.9154 10.4885C20.042 10.4451 20.2479 10.4657 20.3446 10.5492C22.7731 12.678 25.2005 14.8067 27.6063 16.9636C28.5544 17.8142 29.487 18.6952 30.1376 19.8421C30.5154 20.5169 30.3579 21.1571 29.7392 21.527ZM32.5094 17.415C32.0884 17.6613 31.7034 17.9726 31.306 18.2537C28.9044 15.3296 25.9365 13.125 23.1848 10.6621C22.4879 10.0382 21.8003 9.40241 21.1301 8.74709C20.7369 8.36409 20.3498 8.2914 19.8433 8.49754C19.0733 8.8111 18.2652 9.02158 17.4962 9.3384C17.2224 9.45124 16.9825 9.72031 16.789 9.97094C16.3896 10.4863 15.9654 10.9561 15.3663 11.2111C14.7559 11.4715 14.1485 11.415 13.5411 11.1948C13.1654 11.0581 13.1448 10.7391 13.2004 10.406C13.3589 9.4469 13.8026 8.61689 14.3564 7.86391C15.3571 6.50335 16.543 5.34026 17.9327 4.42996C19.1701 3.61948 20.4847 3.62925 21.8023 4.17933C23.7829 5.00608 25.7502 5.86756 27.7246 6.7095C28.1344 6.88418 28.5461 7.06646 28.9703 7.19231C29.3964 7.31817 29.6281 7.57097 29.7784 8.01473C30.7563 10.8975 31.7528 13.7738 32.7596 16.6457C32.8893 17.0168 32.844 17.2197 32.5094 17.415ZM38.9815 18.6312C38.9815 18.6312 37.8625 18.6312 37.3128 18.6312C36.7445 18.6312 36.1752 18.6106 35.6091 18.6388C35.2992 18.654 35.1963 18.5238 35.0974 18.232C33.789 14.3597 32.4662 10.4939 31.1393 6.62921C30.9663 6.12687 30.744 5.64297 30.5298 5.11241C33.2908 4.18042 36.0949 3.76596 38.9815 3.69869L38.9588 1.813C37.7019 1.89871 37.0564 1.92366 35.8036 2.05495C33.58 2.28822 31.3946 2.73306 29.3069 3.60429C29.0444 3.71388 28.7469 3.85709 28.5894 4.08168C28.4298 4.30736 28.4247 4.65347 28.3485 4.95943C28.2363 4.91495 28.0798 4.85744 27.9274 4.79126C26.2392 4.05781 24.5499 3.32871 22.8647 2.58767C20.4682 1.53307 18.223 1.73488 16.1353 3.43287C15.9562 3.57825 15.6896 3.67156 15.4621 3.67265C13.3703 3.69109 11.2774 3.6835 9.18458 3.6835C9.05179 3.6835 8.91899 3.6835 8.75016 3.6835C8.77384 3.46216 8.77693 3.30159 8.80987 3.14752C8.94164 2.53342 8.73266 2.06471 8.21692 1.79564C7.68676 1.51897 7.13911 1.25532 6.57292 1.08281C4.19081 0.359127 0.214122 0 0.214122 0L0 1.8781C0 1.8781 4.73332 2.35549 7.0269 3.17681C6.35983 7.84113 5.04627 12.2787 3.77184 16.7553C2.49328 16.7553 1.26311 16.7553 0 16.7553L0.00823545 18.6616C1.42164 18.6649 2.17931 18.5998 3.59169 18.6421C4.51611 18.6692 5.33142 18.6247 5.48378 17.288C5.63717 17.4074 5.68658 17.5549 5.78026 17.658C6.34541 18.2808 6.87042 18.9578 7.50044 19.4992C10.1842 21.8037 12.8895 24.08 15.6134 26.3313C16.1724 26.7935 16.8168 27.17 17.4694 27.4695C18.7696 28.0651 20.0986 28.2929 21.406 27.4369C21.475 27.3913 21.5975 27.3881 21.6778 27.4185C22.8781 27.8774 24.4675 27.1407 25.1902 25.8333C25.3106 25.6152 25.4311 25.5404 25.6843 25.5762C26.9515 25.7552 28.2888 25.0228 28.9486 23.8467C29.0238 23.7133 29.207 23.5874 29.3532 23.5679C31.1063 23.3411 32.1708 22.0489 32.111 20.2034C32.1069 20.0916 32.145 19.931 32.2202 19.8735C32.6072 19.5752 33.0139 19.3017 33.4431 18.999C33.507 19.177 33.5605 19.3083 33.6017 19.4439C33.8889 20.3802 34.0598 20.5126 35.0037 20.5126C36.5417 20.5126 39 20.5158 39 20.5158L38.9815 18.6312Z" fill="white"/>
</svg>
