<svg width="53" height="36" viewBox="0 0 53 36" fill="none" xmlns="http://www.w3.org/2000/svg">
<path d="M52.9992 13.8022C52.9992 13.7975 52.9992 13.7921 52.9992 13.7874C52.9984 13.7672 52.9968 13.7471 52.9945 13.7269C52.9945 13.7238 52.9937 13.7215 52.9929 13.7184C52.9897 13.6951 52.985 13.6718 52.9794 13.6485C52.9786 13.6447 52.9778 13.6408 52.977 13.6369C52.9707 13.6121 52.9628 13.5872 52.9533 13.564C52.9525 13.5609 52.9509 13.5585 52.9501 13.5554C52.9414 13.5329 52.9311 13.5112 52.92 13.4903C52.9184 13.4879 52.9176 13.4848 52.916 13.4825C52.9041 13.4608 52.8907 13.439 52.8764 13.4189C52.8732 13.4142 52.8701 13.4103 52.8669 13.4057C52.8534 13.3871 52.8392 13.3692 52.8241 13.3521C52.8225 13.3498 52.821 13.3475 52.8186 13.3459C52.8027 13.3281 52.7853 13.3118 52.7671 13.2955C52.7615 13.2908 52.7568 13.2862 52.7512 13.2815C52.733 13.266 52.714 13.2513 52.6934 13.2373C52.6926 13.2365 52.6918 13.2358 52.6902 13.235C52.6879 13.2334 52.6847 13.2319 52.6815 13.2303C52.6625 13.2179 52.6435 13.2071 52.6237 13.1962C52.6189 13.1939 52.615 13.1915 52.6102 13.1892C52.5873 13.1776 52.5635 13.1675 52.5397 13.1582C52.5365 13.1574 52.5334 13.1558 52.531 13.1551C52.5199 13.1512 52.508 13.1465 52.4969 13.1434L38.9499 9.03128C38.7985 8.9855 38.6338 8.99016 38.4848 9.04602L32.8774 11.1355V4.80973C32.8774 4.8074 32.8766 4.80507 32.8766 4.80197C32.8766 4.79731 32.8766 4.79188 32.8766 4.78722C32.8758 4.76705 32.8743 4.74688 32.8719 4.72671C32.8719 4.7236 32.8711 4.72127 32.8703 4.71817C32.8671 4.6949 32.8624 4.67162 32.8568 4.64834C32.856 4.64446 32.8552 4.64058 32.8545 4.6367C32.8481 4.61188 32.8402 4.58705 32.8307 4.56377C32.8299 4.56067 32.8283 4.55834 32.8275 4.55524C32.8188 4.53274 32.8085 4.51101 32.7974 4.49006C32.7958 4.48774 32.795 4.48463 32.7935 4.4823C32.7816 4.46058 32.7681 4.43886 32.7538 4.41868C32.7507 4.41403 32.7475 4.41015 32.7443 4.40549C32.7309 4.38687 32.7166 4.36903 32.7016 4.35196C32.7 4.34963 32.6984 4.3473 32.696 4.34575C32.6802 4.3279 32.6627 4.31161 32.6445 4.29532C32.639 4.29066 32.6342 4.28601 32.6287 4.28135C32.6104 4.26583 32.5914 4.25109 32.5708 4.23713C32.57 4.23635 32.5693 4.23558 32.5677 4.2348C32.5653 4.23325 32.5621 4.2317 32.559 4.23014C32.5399 4.21773 32.5209 4.20687 32.5011 4.19601C32.4964 4.19368 32.4924 4.19135 32.4877 4.18902C32.4647 4.17738 32.4409 4.1673 32.4171 4.15799C32.414 4.15721 32.4108 4.15566 32.4084 4.15488C32.3973 4.151 32.3855 4.14635 32.3744 4.14325L18.8273 0.0310913C18.676 -0.0146855 18.5112 -0.0100303 18.3622 0.045833L0.457907 6.71839C0.452362 6.72071 0.447608 6.72304 0.442063 6.72459C0.436517 6.72692 0.430972 6.72925 0.425426 6.73158C0.40562 6.74011 0.385022 6.74942 0.365217 6.76028C0.363632 6.76106 0.361256 6.76261 0.359671 6.76339C0.338281 6.77502 0.317683 6.78899 0.297877 6.80218C0.295501 6.80373 0.292332 6.80528 0.289955 6.80761C0.286786 6.80994 0.28441 6.81227 0.282033 6.81459C0.263812 6.82778 0.247175 6.84175 0.230538 6.85649C0.227369 6.8596 0.2242 6.8627 0.220239 6.8658C0.205187 6.88054 0.190135 6.89529 0.176667 6.9108C0.171121 6.91701 0.166368 6.92322 0.160822 6.92942C0.147354 6.94572 0.133886 6.96279 0.121211 6.98063C0.118042 6.98529 0.114873 6.99072 0.111704 6.99537C0.101405 7.01089 0.0918984 7.02719 0.0831839 7.04425C0.0792227 7.05124 0.0760538 7.05744 0.0728849 7.06443C0.0625859 7.0846 0.0530792 7.10555 0.045157 7.1265C0.0435725 7.13038 0.0427803 7.13426 0.0411958 7.13814C0.0340658 7.15753 0.0285202 7.17693 0.0229746 7.19633C0.0213901 7.20331 0.0198057 7.20874 0.0182212 7.21495C0.0126756 7.23822 0.0087145 7.2615 0.00554559 7.28555C0.00554559 7.28866 0.00475336 7.29176 0.00475336 7.29486C0.00237668 7.31659 0.000792227 7.33831 0.000792227 7.36004C0.000792227 7.36314 0 7.36624 0 7.37012V18.6173C0 18.6204 0 18.6227 0 18.6258V22.1894C0 22.4951 0.203602 22.7659 0.502272 22.8567L14.0494 26.9688C14.0573 26.9711 14.066 26.9727 14.0747 26.975C14.085 26.9781 14.0961 26.9804 14.1072 26.9828C14.1246 26.9867 14.142 26.9898 14.1595 26.9921C14.1698 26.9936 14.1801 26.9952 14.1904 26.996C14.2078 26.9975 14.2252 26.9983 14.2435 26.9991C14.2545 26.9991 14.2648 26.9998 14.2759 26.9991C14.2926 26.9991 14.3092 26.9975 14.3258 26.996C14.3377 26.9952 14.3496 26.9936 14.3615 26.9921C14.3773 26.9898 14.3924 26.9867 14.4074 26.9835C14.4201 26.9812 14.4328 26.9781 14.4447 26.975C14.4597 26.9711 14.474 26.9665 14.4883 26.9618C14.497 26.9587 14.5057 26.9572 14.5144 26.9541L20.1234 24.8638V27.6174C20.1234 27.6205 20.1234 27.6229 20.1234 27.626V31.1896C20.1234 31.4953 20.327 31.7661 20.6256 31.8568L34.1727 35.969C34.1806 35.9713 34.1894 35.9729 34.1981 35.9752C34.2084 35.9783 34.2195 35.9806 34.2306 35.983C34.248 35.9868 34.2654 35.9899 34.2828 35.9923C34.2931 35.9938 34.3034 35.9954 34.3137 35.9962C34.3312 35.9977 34.3486 35.9985 34.3668 35.9993C34.3779 35.9993 34.3882 36 34.3993 35.9993C34.4159 35.9993 34.4326 35.9977 34.4492 35.9962C34.4611 35.9954 34.473 35.9938 34.4849 35.9923C34.5007 35.9899 34.5158 35.9868 34.5308 35.9837C34.5435 35.9814 34.5562 35.9783 34.568 35.9752C34.5831 35.9713 34.5974 35.9667 34.6116 35.962C34.6203 35.9589 34.629 35.9574 34.6378 35.9543L52.5421 29.2817C52.8178 29.1793 53.0016 28.9178 53.0016 28.6292V13.8099C53 13.8076 52.9992 13.8045 52.9992 13.8022ZM31.4514 11.6669L28.8529 12.6352V6.79054L31.4514 5.82225V11.6669ZM20.5662 15.724C20.5607 15.7263 20.5551 15.7287 20.5496 15.731C20.5282 15.7403 20.5084 15.7496 20.4886 15.7605C20.487 15.7612 20.4846 15.7628 20.483 15.7636C20.4616 15.7752 20.441 15.7892 20.4212 15.8024C20.4189 15.8039 20.4157 15.8055 20.4133 15.8078C20.4102 15.8101 20.4078 15.8125 20.4054 15.8148C20.3872 15.828 20.3705 15.8419 20.3539 15.8567C20.3507 15.8598 20.3476 15.8629 20.3436 15.866C20.3286 15.8807 20.3135 15.8955 20.3 15.911C20.2945 15.9172 20.2897 15.9234 20.2842 15.9296C20.2707 15.9459 20.2572 15.963 20.2446 15.9808C20.2414 15.9855 20.2382 15.9909 20.2351 15.9956C20.2248 16.0111 20.2153 16.0274 20.2065 16.0444C20.2026 16.0514 20.1994 16.0576 20.1962 16.0646C20.1859 16.0848 20.1764 16.1057 20.1685 16.1267C20.1669 16.1306 20.1661 16.1344 20.1646 16.1383C20.1574 16.1577 20.1519 16.1771 20.1463 16.1965C20.1448 16.2027 20.1432 16.2089 20.1416 16.2144C20.136 16.2376 20.1321 16.2609 20.1289 16.285C20.1289 16.2881 20.1281 16.2912 20.1281 16.2943C20.1257 16.316 20.1242 16.3377 20.1242 16.3594C20.1242 16.3626 20.1234 16.3664 20.1234 16.3695V20.0325L19.2678 20.3513V10.3635L22.9912 8.97619V14.8201L20.5829 15.7178C20.5765 15.7193 20.5718 15.7217 20.5662 15.724ZM27.4269 13.1667L24.4164 14.2886V8.44471L27.4269 7.32279V13.1667ZM13.5471 25.3542L1.42601 21.6742V19.5669L13.5471 23.2461V25.3542ZM1.42601 18.1052V8.31747L8.55605 10.4814L13.5471 11.9967V21.7852L1.42601 18.1052ZM14.2363 10.7436L2.89876 7.30262L18.6411 1.43543L29.9787 4.87645L14.2363 10.7436ZM17.841 24.2199L14.9731 25.2883V23.4463L17.841 22.3779V24.2199ZM17.841 20.8836L14.9731 21.952V11.9633L17.841 10.8949V20.8836ZM19.267 23.6884V21.8465L20.1226 21.5276V23.3695L19.267 23.6884ZM33.6697 34.3544L21.5486 30.6752V28.5679L33.6697 32.2471V34.3544ZM21.5486 27.1054V17.3177L28.6786 19.4816L33.6697 20.9969V30.7854L21.5486 27.1054ZM34.3589 19.7438L23.0213 16.3028L38.7637 10.4364L50.1012 13.8774L34.3589 19.7438ZM37.9635 33.2201L35.0957 34.2884V32.4465L37.9635 31.3781V33.2201ZM37.9635 29.8838L35.0957 30.9522V20.9635L37.9635 19.8951V29.8838ZM43.113 31.3005L39.3895 32.6878V30.8459L43.113 29.4586V31.3005ZM43.113 27.9643L39.3895 29.3523V19.3636L43.113 17.9764V27.9643ZM47.5495 29.6479L44.539 30.7698V28.9279L47.5495 27.806V29.6479ZM47.5495 26.3116L44.539 27.4336V17.4441L47.5495 16.3222V26.3116ZM51.574 28.1474L48.9755 29.1157V27.2737L51.574 26.3054V28.1474ZM51.574 24.8111L48.9755 25.7794V15.7907L51.574 14.8224V24.8111Z" fill="white"/>
</svg>
