<svg width="36" height="27" viewBox="0 0 36 27" fill="none" xmlns="http://www.w3.org/2000/svg">
<path d="M12.075 13.7432L0.398479 2.06665C0.166244 2.54811 0.0351562 3.08784 0.0351562 3.65831V23.2057C0.0351562 23.9397 0.252017 24.6218 0.623432 25.1947L12.075 13.7432Z" fill="white"/>
<path d="M14.5111 13.3175C14.9878 13.7933 15.5331 14.1478 16.1174 14.3848C16.7016 14.6219 17.3231 14.7409 17.9461 14.7409C18.5684 14.7409 19.1907 14.6219 19.7749 14.3848C20.3591 14.1478 20.9053 13.7941 21.3811 13.3175L34.1816 0.517877C33.6321 0.189349 32.9905 0 32.3051 0H3.69399C2.98029 0 2.31434 0.205532 1.75195 0.558336L14.5111 13.3175Z" fill="white"/>
<path d="M22.4235 15.105C21.8474 15.5995 21.2089 15.9871 20.5349 16.2597C19.7055 16.5956 18.8259 16.7639 17.9463 16.7639C17.0667 16.7639 16.1863 16.5964 15.3577 16.2597C14.7063 15.996 14.0873 15.6253 13.5266 15.1544L2.1543 26.525C2.622 26.7427 3.14393 26.8649 3.69336 26.8649H32.3036C32.8539 26.8649 33.375 26.7427 33.8427 26.525L22.4235 15.105Z" fill="white"/>
<path d="M35.5636 1.99628L23.8701 13.6898L35.3751 25.1947C35.7465 24.6218 35.9634 23.9397 35.9634 23.2058V3.65834C35.9634 3.05954 35.8185 2.49554 35.5636 1.99628Z" fill="white"/>
</svg>
