<svg width="20" height="20" viewBox="0 0 20 20" fill="none" xmlns="http://www.w3.org/2000/svg">
<path d="M19.7845 19.7904V19.7894H19.7896V12.5318C19.7896 8.98155 19.0254 6.24609 14.8742 6.24609C12.8788 6.24609 11.54 7.3412 10.9932 8.37911H10.9355V6.57746H6.99976V19.7894H11.0978V13.2476C11.0978 11.5253 11.4245 9.8597 13.5575 9.8597C15.6596 9.8597 15.6905 11.8252 15.6905 13.3584V19.7904H19.7845Z" fill="#353597"/>
<path d="M4.42966 6.57715H0.326477V19.7891H4.42966V6.57715Z" fill="#353597"/>
<path d="M2.37626 0C1.0647 0 0 1.0647 0 2.37626C0 3.68782 1.0647 4.77468 2.37626 4.77468C3.68781 4.77468 4.75252 3.68782 4.75252 2.37626C4.752 1.0647 3.6873 0 2.37626 0Z" fill="#353597"/>
</svg>
