<svg width="34" height="34" viewBox="0 0 34 34" fill="none" xmlns="http://www.w3.org/2000/svg">
<path d="M0.00190861 6.63294C-0.0345433 5.54654 0.451154 4.3728 1.45801 3.39925C2.32695 2.5582 3.17224 1.69457 4.03132 0.843703C4.17122 0.705326 4.31899 0.572838 4.47367 0.451145C5.26083 -0.164189 6.11992 -0.154375 6.8657 0.507085C7.34549 0.932028 7.79769 1.38838 8.25087 1.84178C9.48925 3.0803 10.7404 4.30704 11.9502 5.57304C12.7404 6.39937 12.7492 7.2738 11.969 8.10209C11.0567 9.07073 10.0951 9.9952 9.13557 10.9187C8.25186 11.7686 8.15334 12.2563 8.66071 13.3751C9.64491 15.545 11.0981 17.388 12.6911 19.1339C14.6043 21.2302 16.7284 23.0811 19.1756 24.5434C19.6938 24.8525 20.2327 25.1293 20.7726 25.4011C21.5213 25.779 22.1666 25.6759 22.7686 25.0841C23.6917 24.1763 24.605 23.2568 25.5251 22.3451C25.6828 22.189 25.8424 22.033 26.0177 21.8975C26.7773 21.3126 27.6561 21.3195 28.3388 21.9859C30.0245 23.6317 31.7003 25.2892 33.3485 26.9723C34.2026 27.8438 34.2174 28.7644 33.3899 29.6614C32.3623 30.7752 31.3042 31.8656 30.2077 32.9127C29.1358 33.9353 27.7901 34.1002 26.3704 33.954C24.0365 33.7135 21.8918 32.8872 19.8101 31.8695C15.6279 29.8262 11.9355 27.1117 8.76711 23.7151C5.51304 20.2262 2.79688 16.3792 1.10039 11.8854C0.497457 10.2896 0.014716 8.66639 0.00190861 6.63294Z" fill="white"/>
</svg>
