<svg width="23" height="23" viewBox="0 0 23 23" fill="none" xmlns="http://www.w3.org/2000/svg">
<path d="M15.2085 1H7.34368C3.72464 1 0.789673 4.02694 0.789673 7.75938V15.8706C0.789673 19.6031 3.72464 22.63 7.34368 22.63H15.2085C18.8275 22.63 21.7625 19.6031 21.7625 15.8706V7.75938C21.7625 4.02694 18.8275 1 15.2085 1ZM19.7963 15.8706C19.7963 18.4798 17.7383 20.6022 15.2085 20.6022H7.34368C4.81383 20.6022 2.75588 18.4798 2.75588 15.8706V7.75938C2.75588 5.15026 4.81383 3.02782 7.34368 3.02782H15.2085C17.7383 3.02782 19.7963 5.15026 19.7963 7.75938V15.8706Z" fill="#353597"/>
<path d="M11.2767 6.4077C8.38108 6.4077 6.03352 8.82882 6.03352 11.8152C6.03352 14.8016 8.38108 17.2227 11.2767 17.2227C14.1724 17.2227 16.5199 14.8016 16.5199 11.8152C16.5199 8.82882 14.1724 6.4077 11.2767 6.4077ZM11.2767 15.1949C9.47028 15.1949 7.99972 13.6783 7.99972 11.8152C7.99972 9.95088 9.47028 8.43551 11.2767 8.43551C13.0832 8.43551 14.5537 9.95088 14.5537 11.8152C14.5537 13.6783 13.0832 15.1949 11.2767 15.1949Z" fill="#353597"/>
<path d="M17.0437 6.40818C17.3332 6.40818 17.568 6.16608 17.568 5.86742C17.568 5.56877 17.3332 5.32667 17.0437 5.32667C16.7541 5.32667 16.5193 5.56877 16.5193 5.86742C16.5193 6.16608 16.7541 6.40818 17.0437 6.40818Z" fill="#353597"/>
<path d="M15.2085 1H7.34368C3.72464 1 0.789673 4.02694 0.789673 7.75938V15.8706C0.789673 19.6031 3.72464 22.63 7.34368 22.63H15.2085C18.8275 22.63 21.7625 19.6031 21.7625 15.8706V7.75938C21.7625 4.02694 18.8275 1 15.2085 1ZM19.7963 15.8706C19.7963 18.4798 17.7383 20.6022 15.2085 20.6022H7.34368C4.81383 20.6022 2.75588 18.4798 2.75588 15.8706V7.75938C2.75588 5.15026 4.81383 3.02782 7.34368 3.02782H15.2085C17.7383 3.02782 19.7963 5.15026 19.7963 7.75938V15.8706Z" stroke="#353597" stroke-width="0.5"/>
<path d="M11.2767 6.4077C8.38108 6.4077 6.03352 8.82882 6.03352 11.8152C6.03352 14.8016 8.38108 17.2227 11.2767 17.2227C14.1724 17.2227 16.5199 14.8016 16.5199 11.8152C16.5199 8.82882 14.1724 6.4077 11.2767 6.4077ZM11.2767 15.1949C9.47028 15.1949 7.99972 13.6783 7.99972 11.8152C7.99972 9.95088 9.47028 8.43551 11.2767 8.43551C13.0832 8.43551 14.5537 9.95088 14.5537 11.8152C14.5537 13.6783 13.0832 15.1949 11.2767 15.1949Z" stroke="#353597" stroke-width="0.5"/>
<path d="M17.0437 6.40818C17.3332 6.40818 17.568 6.16608 17.568 5.86742C17.568 5.56877 17.3332 5.32667 17.0437 5.32667C16.7541 5.32667 16.5193 5.56877 16.5193 5.86742C16.5193 6.16608 16.7541 6.40818 17.0437 6.40818Z" stroke="#353597" stroke-width="0.5"/>
</svg>
