<svg width="20" height="19" viewBox="0 0 20 19" fill="none" xmlns="http://www.w3.org/2000/svg">
<rect x="1.44238" y="1" width="17" height="17" rx="4" stroke="white" stroke-width="2"/>
<path fill-rule="evenodd" clip-rule="evenodd" d="M5.7041 5.58042C5.7041 4.98382 6.18841 4.49951 6.78501 4.49951C7.38138 4.49951 7.86569 4.98382 7.86593 5.58042C7.86593 6.17702 7.38161 6.67142 6.78501 6.67142C6.18841 6.67142 5.7041 6.17702 5.7041 5.58042ZM14.7022 13.5019V13.5014H14.7046V10.2C14.7046 8.58512 14.3569 7.34082 12.4687 7.34082C11.561 7.34082 10.952 7.83896 10.7032 8.31109H10.677V7.49155H8.88672V13.5014H10.7508V10.5257C10.7508 9.74222 10.8995 8.98458 11.8697 8.98458C12.8259 8.98458 12.84 9.87865 12.84 10.5761V13.5019H14.7022ZM7.71824 7.49135H5.85178V13.5012H7.71824V7.49135Z" fill="white"/>
</svg>
