<svg width="20" height="15" viewBox="0 0 20 15" fill="none" xmlns="http://www.w3.org/2000/svg">
<path d="M9.73757 14.0251H9.73225C9.14659 14.0209 3.96945 13.9738 2.50264 13.5773C1.47754 13.302 0.668553 12.4934 0.392054 11.4683C0.00807008 10.0273 0.0327575 7.25316 0.0354161 7.03174C0.0327575 6.81145 0.00807008 4.01417 0.390915 2.56141L0.392054 2.55724C0.665515 1.54391 1.49273 0.710238 2.50036 0.434119C2.50264 0.433359 2.5053 0.4326 2.50796 0.43222C3.95806 0.0505143 9.14583 0.00417787 9.73263 0H9.74327C10.3304 0.00417787 15.5213 0.0512739 16.9748 0.448551C17.9972 0.723151 18.8058 1.53062 19.0827 2.55458C19.4807 4.00848 19.4439 6.81145 19.4401 7.04807C19.4428 7.28127 19.4663 10.0303 19.0846 11.4785L19.0835 11.4827C18.807 12.5078 17.998 13.316 16.9717 13.5921L16.9676 13.5933C15.5175 13.9742 10.3297 14.0209 9.74327 14.0251H9.73757ZM1.85659 2.94996C1.51932 4.23218 1.55122 6.99375 1.5516 7.02148V7.04161C1.54173 7.8073 1.57705 10.0254 1.85659 11.0755C1.99218 11.5784 2.39136 11.9768 2.89726 12.1132C3.97971 12.406 8.19594 12.4979 9.73719 12.5089C11.2822 12.4979 15.5053 12.4087 16.5794 12.1276C17.0838 11.9912 17.4814 11.594 17.6182 11.0903C17.8985 10.0246 17.9334 7.81755 17.9232 7.05642C17.9232 7.04845 17.9232 7.04047 17.9232 7.0325C17.9372 6.25731 17.9095 4.01379 17.6193 2.95489L17.6186 2.95186C17.4822 2.44671 17.083 2.0483 16.5771 1.91195C15.5053 1.61911 11.2819 1.5272 9.73719 1.51619C8.1929 1.5272 3.97439 1.61646 2.89688 1.89713C2.40085 2.035 1.99256 2.44785 1.85659 2.94996ZM7.80512 10.0827V3.94201L13.1122 7.01237L7.80512 10.0827Z" fill="white"/>
</svg>
