<svg width="20" height="15" viewBox="0 0 20 15" fill="none" xmlns="http://www.w3.org/2000/svg">
<path d="M9.73855 14.0251H9.73323C9.14757 14.0209 3.97043 13.9738 2.50362 13.5773C1.47852 13.302 0.66953 12.4934 0.393031 11.4683C0.00904664 10.0273 0.033734 7.25316 0.0363927 7.03174C0.033734 6.81145 0.00904664 4.01417 0.391891 2.56141L0.393031 2.55724C0.666492 1.54391 1.49371 0.710238 2.50134 0.434119C2.50361 0.433359 2.50627 0.4326 2.50893 0.43222C3.95903 0.0505143 9.14681 0.00417787 9.73361 0H9.74424C10.3314 0.00417787 15.5222 0.0512739 16.9758 0.448551C17.9982 0.723151 18.8068 1.53062 19.0837 2.55458C19.4817 4.00848 19.4449 6.81145 19.4411 7.04807C19.4437 7.28127 19.4673 10.0303 19.0856 11.4785L19.0844 11.4827C18.8079 12.5078 17.999 13.316 16.9727 13.5921L16.9685 13.5933C15.5184 13.9742 10.3307 14.0209 9.74424 14.0251H9.73855ZM1.85756 2.94996C1.5203 4.23218 1.5522 6.99375 1.55258 7.02148V7.04161C1.5427 7.8073 1.57803 10.0254 1.85756 11.0755C1.99316 11.5784 2.39233 11.9768 2.89823 12.1132C3.98068 12.406 8.19691 12.4979 9.73817 12.5089C11.2832 12.4979 15.5063 12.4087 16.5804 12.1276C17.0848 11.9912 17.4824 11.594 17.6192 11.0903C17.8994 10.0246 17.9344 7.81755 17.9241 7.05642C17.9241 7.04845 17.9241 7.04047 17.9241 7.0325C17.9382 6.25731 17.9105 4.01379 17.6203 2.95489L17.6195 2.95186C17.4832 2.44671 17.084 2.0483 16.5781 1.91195C15.5063 1.61911 11.2828 1.5272 9.73817 1.51619C8.19387 1.5272 3.97536 1.61646 2.89785 1.89713C2.40183 2.035 1.99353 2.44785 1.85756 2.94996ZM7.80609 10.0827V3.94201L13.1131 7.01237L7.80609 10.0827Z" fill="white"/>
</svg>
