<svg width="19" height="19" viewBox="0 0 19 19" fill="none" xmlns="http://www.w3.org/2000/svg">
<rect x="1" y="1" width="17" height="17" rx="4" stroke="white" stroke-width="2"/>
<path fill-rule="evenodd" clip-rule="evenodd" d="M5.26172 5.58042C5.26172 4.98382 5.74603 4.49951 6.34263 4.49951C6.939 4.49951 7.42331 4.98382 7.42354 5.58042C7.42354 6.17702 6.93923 6.67142 6.34263 6.67142C5.74603 6.67142 5.26172 6.17702 5.26172 5.58042ZM14.2608 13.5019V13.5014H14.2632V10.2C14.2632 8.58512 13.9155 7.34082 12.0273 7.34082C11.1196 7.34082 10.5106 7.83896 10.2618 8.31109H10.2356V7.49155H8.44531V13.5014H10.3094V10.5257C10.3094 9.74222 10.458 8.98458 11.4283 8.98458C12.3845 8.98458 12.3986 9.87865 12.3986 10.5761V13.5019H14.2608ZM7.27661 7.49121H5.41016V13.501H7.27661V7.49121Z" fill="white"/>
</svg>
