<svg width="20" height="20" viewBox="0 0 20 20" fill="none" xmlns="http://www.w3.org/2000/svg">
<path d="M13.0863 0H5.9483C2.66372 0 0 2.7472 0 6.1347V13.4963C0 16.8838 2.66372 19.631 5.9483 19.631H13.0863C16.3708 19.631 19.0346 16.8838 19.0346 13.4963V6.1347C19.0346 2.7472 16.3708 0 13.0863 0ZM17.2501 13.4963C17.2501 15.8643 15.3823 17.7906 13.0863 17.7906H5.9483C3.65226 17.7906 1.78449 15.8643 1.78449 13.4963V6.1347C1.78449 3.76671 3.65226 1.84041 5.9483 1.84041H13.0863C15.3823 1.84041 17.2501 3.76671 17.2501 6.1347V13.4963Z" fill="white"/>
<path d="M9.51646 4.90771C6.88842 4.90771 4.75781 7.10509 4.75781 9.81547C4.75781 12.5259 6.88842 14.7232 9.51646 14.7232C12.1445 14.7232 14.2751 12.5259 14.2751 9.81547C14.2751 7.10509 12.1445 4.90771 9.51646 4.90771ZM9.51646 12.8828C7.87695 12.8828 6.5423 11.5064 6.5423 9.81547C6.5423 8.12345 7.87695 6.74812 9.51646 6.74812C11.156 6.74812 12.4906 8.12345 12.4906 9.81547C12.4906 11.5064 11.156 12.8828 9.51646 12.8828Z" fill="white"/>
<path d="M14.7532 4.90782C15.016 4.90782 15.2291 4.6881 15.2291 4.41705C15.2291 4.146 15.016 3.92627 14.7532 3.92627C14.4904 3.92627 14.2773 4.146 14.2773 4.41705C14.2773 4.6881 14.4904 4.90782 14.7532 4.90782Z" fill="white"/>
</svg>
