<svg width="15" height="19" viewBox="0 0 15 19" fill="none" xmlns="http://www.w3.org/2000/svg">
<path d="M5.00938 15.8586C6.82568 18.4339 10.9874 18.7773 13.6753 17.1322C14.3619 16.3568 14.7621 15.3907 14.1024 14.5893L13.1457 13.4272C12.4491 12.5811 11.2859 12.2817 10.2675 12.6865L8.93992 13.2141C8.52903 13.3774 8.05971 13.2421 7.79876 12.8852V12.8852C6.74773 11.3447 5.81398 9.7274 5.00539 8.04693V8.04693C4.82675 7.64248 4.94427 7.1684 5.29113 6.89422L6.41185 6.00831C7.27158 5.32871 7.59395 4.17164 7.20949 3.1454L6.68138 1.73575C6.31724 0.763753 5.17757 0.33843 4.26566 0.834202C1.49699 2.33942 -0.286509 6.11527 1.03562 8.97589V8.97589C2.14674 11.3869 3.47691 13.6909 5.00938 15.8586V15.8586Z" stroke="white"/>
</svg>
