<svg width="16" height="21" viewBox="0 0 16 21" fill="none" xmlns="http://www.w3.org/2000/svg">
<path d="M12.7113 1.74256C11.5007 0.964317 9.90098 0.575195 7.95537 0.575195C6.6583 0.575195 5.49094 0.748138 4.49651 1.09402C3.0265 1.61285 1.85914 2.5208 1.12413 3.81787C0.345886 5.07171 0 6.7579 0 8.78998C0.0864714 11.1247 0.778243 13.0703 1.90237 14.4106C2.98326 15.7942 4.49651 16.5724 6.18271 16.5724C6.87448 16.5724 7.43654 16.4859 7.91214 16.3562C8.60391 16.1401 9.03627 15.7942 9.29568 15.3618C9.55509 14.9295 9.64157 14.4539 9.6848 14.0647C9.6848 13.9783 9.64157 13.8918 9.59833 13.8486C9.55509 13.8053 9.46862 13.8053 9.38215 13.8053C9.33892 13.8053 9.25244 13.8486 9.16597 13.8486C8.86332 13.8918 8.38773 13.935 7.95537 13.935C7.17713 13.935 6.52859 13.8053 5.96653 13.5891C5.10181 13.2433 4.49651 12.7244 4.06416 11.903C3.6318 11.0815 3.41562 10.0006 3.41562 8.66027C3.41562 7.79556 3.50209 7.01732 3.71827 6.36878C4.02092 5.4176 4.49651 4.68259 5.18829 4.207C5.88006 3.7314 6.78801 3.47199 7.95537 3.47199C8.69038 3.47199 9.38215 3.6017 9.90098 3.77464C10.7225 4.07729 11.3278 4.63935 11.7601 5.4176C12.1925 6.19584 12.4087 7.27673 12.4087 8.5738C12.4087 10.1303 12.106 11.2977 11.5872 12.1191C11.5439 12.2056 11.5439 12.2921 11.5872 12.3353C11.6304 12.4218 11.7169 12.465 11.8034 12.465C11.8034 12.465 12.0195 12.465 12.2789 12.465C13.2301 12.465 13.9219 12.1624 14.4407 11.7732C15.046 11.2977 15.3919 10.6059 15.6081 10.0438C15.8243 9.43852 15.8675 8.91969 15.8675 8.66027C15.8675 7.31997 15.6946 6.10937 15.3919 5.11495C14.8299 3.68817 13.9651 2.5208 12.7113 1.74256Z" fill="white"/>
<path fill-rule="evenodd" clip-rule="evenodd" d="M14.3566 19.0367H12.2813C12.2813 18.9935 12.2813 18.9935 12.2813 18.9502C12.2813 18.8638 12.2813 18.7773 12.2813 18.734C12.2813 18.6908 12.3245 18.6476 12.3245 18.6476C12.3677 18.6043 12.3677 18.6043 12.411 18.6043C12.4542 18.6043 12.4975 18.5611 12.5839 18.5611L14.4863 18.0423C14.7889 17.9558 15.0051 17.8261 15.2213 17.6964C15.4807 17.437 15.6537 17.1343 15.6969 16.8317C15.7834 16.529 15.7834 16.1831 15.7834 15.8373C15.7834 15.7508 15.7834 15.6643 15.7834 15.6211C15.7834 15.3617 15.7401 15.1022 15.6537 14.8861C15.5672 14.6699 15.3942 14.4537 15.1781 14.2808H15.1348C14.8754 14.0646 14.5728 13.9349 14.2701 13.8916C13.9675 13.8052 13.6216 13.8052 13.2757 13.8052C13.0163 13.8052 12.8001 13.8052 12.5839 13.8052C11.9786 13.8052 11.4598 13.9349 11.0274 14.2375C10.8113 14.4105 10.6383 14.5834 10.5518 14.8428C10.4221 15.1022 10.3789 15.3617 10.3789 15.7075C10.3789 15.8373 10.4221 16.0102 10.4654 16.0967C10.5518 16.2696 10.7248 16.4426 10.8977 16.529C11.0274 16.6155 11.2004 16.6155 11.3733 16.6587C11.4598 16.6587 11.6327 16.6587 11.6327 16.6587H12.238V16.4426C12.238 16.3993 12.238 16.3561 12.238 16.3128C12.238 16.1399 12.238 15.967 12.238 15.8805C12.238 15.7508 12.2813 15.6643 12.2813 15.6211C12.2813 15.5778 12.3245 15.5346 12.3245 15.4914C12.3677 15.4481 12.411 15.4049 12.4975 15.4049C12.5839 15.3617 12.7136 15.3617 12.8866 15.3617C12.9298 15.3617 13.0163 15.3617 13.0595 15.3617C13.1892 15.3617 13.3189 15.3617 13.4486 15.3617C13.5351 15.3617 13.5783 15.4049 13.6648 15.4049C13.7513 15.4481 13.7945 15.4914 13.8378 15.5346C13.881 15.6211 13.9242 15.7075 13.9242 15.9237C13.9242 15.967 13.9242 15.967 13.9242 16.0102C13.9242 16.1399 13.9242 16.2264 13.9242 16.3128C13.9242 16.3561 13.9242 16.3993 13.881 16.4426C13.881 16.4858 13.8378 16.529 13.7945 16.5723C13.7513 16.6155 13.6216 16.6587 13.4919 16.702L11.5463 17.3073C11.3301 17.3505 11.1571 17.437 10.9842 17.5667C10.768 17.7396 10.5951 17.999 10.5086 18.2585C10.4221 18.5179 10.3789 18.8205 10.3789 19.1232V20.4635C10.3789 20.5932 10.4654 20.6797 10.5951 20.6797H15.5672C15.6969 20.6797 15.7834 20.5932 15.7834 20.4635C15.7834 19.642 15.1781 19.0367 14.3566 19.0367Z" fill="white"/>
</svg>
